<svg width="605" height="363" viewBox="0 0 605 363" fill="none" xmlns="http://www.w3.org/2000/svg">
<path d="M0 14C0 6.26802 6.26801 0 14 0H591C598.732 0 605 6.26801 605 14V381H0V14Z" fill="white"/>
<path d="M44.48 39.21C43.7753 39.21 43.1407 39.0933 42.576 38.86C42.016 38.622 41.5517 38.286 41.183 37.852C40.819 37.418 40.581 36.9023 40.469 36.305L41.519 36.13C41.687 36.7833 42.0417 37.2967 42.583 37.67C43.1243 38.0387 43.7707 38.223 44.522 38.223C45.0167 38.223 45.46 38.146 45.852 37.992C46.244 37.8333 46.552 37.6093 46.776 37.32C47 37.0307 47.112 36.6877 47.112 36.291C47.112 36.0297 47.0653 35.808 46.972 35.626C46.8787 35.4393 46.755 35.2853 46.601 35.164C46.447 35.0427 46.279 34.9423 46.097 34.863C45.915 34.779 45.7377 34.7113 45.565 34.66L43.01 33.897C42.702 33.8083 42.4173 33.6963 42.156 33.561C41.8947 33.421 41.666 33.2553 41.47 33.064C41.2787 32.868 41.1293 32.6393 41.022 32.378C40.9147 32.1167 40.861 31.818 40.861 31.482C40.861 30.9127 41.0103 30.4203 41.309 30.005C41.6077 29.5897 42.016 29.27 42.534 29.046C43.052 28.822 43.6423 28.7123 44.305 28.717C44.977 28.717 45.5767 28.836 46.104 29.074C46.636 29.312 47.0747 29.6527 47.42 30.096C47.7653 30.5347 47.994 31.055 48.106 31.657L47.028 31.853C46.958 31.4143 46.797 31.034 46.545 30.712C46.293 30.39 45.971 30.1427 45.579 29.97C45.1917 29.7927 44.7647 29.7017 44.298 29.697C43.8453 29.697 43.4417 29.774 43.087 29.928C42.737 30.0773 42.4593 30.2827 42.254 30.544C42.0487 30.8053 41.946 31.104 41.946 31.44C41.946 31.7807 42.0393 32.0537 42.226 32.259C42.4173 32.4643 42.6507 32.6253 42.926 32.742C43.206 32.8587 43.4767 32.9543 43.738 33.029L45.712 33.61C45.9173 33.666 46.1577 33.7477 46.433 33.855C46.713 33.9577 46.9837 34.107 47.245 34.303C47.511 34.4943 47.7303 34.7463 47.903 35.059C48.0757 35.3717 48.162 35.7683 48.162 36.249C48.162 36.7157 48.0687 37.1333 47.882 37.502C47.7 37.8707 47.441 38.181 47.105 38.433C46.7737 38.685 46.384 38.8763 45.936 39.007C45.4927 39.1423 45.0073 39.21 44.48 39.21ZM52.858 39.189C52.4053 39.189 52.0086 39.119 51.668 38.979C51.332 38.839 51.045 38.65 50.807 38.412C50.5736 38.174 50.3846 37.9033 50.24 37.6C50.0953 37.292 49.9903 36.9677 49.925 36.627C49.8596 36.2817 49.827 35.9387 49.827 35.598V31.44H50.863V35.297C50.863 35.7123 50.9026 36.0973 50.982 36.452C51.0613 36.8067 51.1873 37.117 51.36 37.383C51.5373 37.6443 51.7636 37.8473 52.039 37.992C52.319 38.1367 52.6573 38.209 53.054 38.209C53.418 38.209 53.7376 38.146 54.013 38.02C54.293 37.894 54.5263 37.7143 54.713 37.481C54.9043 37.243 55.049 36.956 55.147 36.62C55.245 36.2793 55.294 35.8967 55.294 35.472L56.022 35.633C56.022 36.4077 55.8866 37.0587 55.616 37.586C55.3453 38.1133 54.972 38.5123 54.496 38.783C54.02 39.0537 53.474 39.189 52.858 39.189ZM55.399 39V37.138H55.294V31.44H56.323V39H55.399ZM67.6555 39L67.6625 34.037C67.6625 33.4537 67.4991 32.9963 67.1725 32.665C66.8505 32.329 66.4398 32.161 65.9405 32.161C65.6558 32.161 65.3781 32.2263 65.1075 32.357C64.8368 32.4877 64.6128 32.6977 64.4355 32.987C64.2628 33.2763 64.1765 33.6543 64.1765 34.121L63.5675 33.946C63.5535 33.4047 63.6585 32.931 63.8825 32.525C64.1111 32.119 64.4238 31.804 64.8205 31.58C65.2218 31.3513 65.6745 31.237 66.1785 31.237C66.9391 31.237 67.5481 31.4727 68.0055 31.944C68.4628 32.4107 68.6915 33.043 68.6915 33.841L68.6845 39H67.6555ZM58.6325 39V31.44H59.5565V33.302H59.6685V39H58.6325ZM63.1545 39L63.1615 34.107C63.1615 33.505 63.0005 33.0313 62.6785 32.686C62.3611 32.336 61.9411 32.161 61.4185 32.161C60.8958 32.161 60.4735 32.3407 60.1515 32.7C59.8295 33.0547 59.6685 33.5283 59.6685 34.121L59.0525 33.785C59.0525 33.2997 59.1668 32.8657 59.3955 32.483C59.6241 32.0957 59.9368 31.7923 60.3335 31.573C60.7301 31.349 61.1805 31.237 61.6845 31.237C62.1651 31.237 62.5921 31.3397 62.9655 31.545C63.3435 31.7503 63.6398 32.049 63.8545 32.441C64.0691 32.833 64.1765 33.309 64.1765 33.869L64.1695 39H63.1545ZM79.8826 39L79.8896 34.037C79.8896 33.4537 79.7263 32.9963 79.3996 32.665C79.0776 32.329 78.667 32.161 78.1676 32.161C77.883 32.161 77.6053 32.2263 77.3346 32.357C77.064 32.4877 76.84 32.6977 76.6626 32.987C76.49 33.2763 76.4036 33.6543 76.4036 34.121L75.7946 33.946C75.7806 33.4047 75.8856 32.931 76.1096 32.525C76.3383 32.119 76.651 31.804 77.0476 31.58C77.449 31.3513 77.9016 31.237 78.4056 31.237C79.1663 31.237 79.7753 31.4727 80.2326 31.944C80.69 32.4107 80.9186 33.043 80.9186 33.841L80.9116 39H79.8826ZM70.8596 39V31.44H71.7836V33.302H71.8956V39H70.8596ZM75.3816 39L75.3886 34.107C75.3886 33.505 75.2276 33.0313 74.9056 32.686C74.5883 32.336 74.1683 32.161 73.6456 32.161C73.123 32.161 72.7006 32.3407 72.3786 32.7C72.0566 33.0547 71.8956 33.5283 71.8956 34.121L71.2796 33.785C71.2796 33.2997 71.394 32.8657 71.6226 32.483C71.8513 32.0957 72.164 31.7923 72.5606 31.573C72.9573 31.349 73.4076 31.237 73.9116 31.237C74.3923 31.237 74.8193 31.3397 75.1926 31.545C75.5706 31.7503 75.867 32.049 76.0816 32.441C76.2963 32.833 76.4036 33.309 76.4036 33.869L76.3966 39H75.3816ZM85.2568 39.21C84.6875 39.21 84.2092 39.1073 83.8218 38.902C83.4392 38.6967 83.1522 38.4237 82.9608 38.083C82.7695 37.7423 82.6738 37.3713 82.6738 36.97C82.6738 36.5593 82.7555 36.2093 82.9188 35.92C83.0868 35.626 83.3132 35.3857 83.5978 35.199C83.8872 35.0123 84.2208 34.87 84.5988 34.772C84.9815 34.6787 85.4038 34.597 85.8658 34.527C86.3325 34.4523 86.7875 34.3893 87.2308 34.338C87.6788 34.282 88.0708 34.2283 88.4068 34.177L88.0428 34.401C88.0568 33.6543 87.9122 33.1013 87.6088 32.742C87.3055 32.3827 86.7782 32.203 86.0268 32.203C85.5088 32.203 85.0702 32.3197 84.7108 32.553C84.3562 32.7863 84.1065 33.155 83.9618 33.659L82.9608 33.365C83.1335 32.6883 83.4812 32.1633 84.0038 31.79C84.5265 31.4167 85.2055 31.23 86.0408 31.23C86.7315 31.23 87.3172 31.3607 87.7978 31.622C88.2832 31.8787 88.6262 32.252 88.8268 32.742C88.9202 32.9613 88.9808 33.2063 89.0088 33.477C89.0368 33.7477 89.0508 34.023 89.0508 34.303V39H88.1338V37.103L88.3998 37.215C88.1432 37.8637 87.7442 38.3583 87.2028 38.699C86.6615 39.0397 86.0128 39.21 85.2568 39.21ZM85.3758 38.321C85.8565 38.321 86.2765 38.2347 86.6358 38.062C86.9952 37.8893 87.2845 37.6537 87.5038 37.355C87.7232 37.0517 87.8655 36.711 87.9308 36.333C87.9868 36.0903 88.0172 35.8243 88.0218 35.535C88.0265 35.241 88.0288 35.0217 88.0288 34.877L88.4208 35.08C88.0708 35.1267 87.6905 35.1733 87.2798 35.22C86.8738 35.2667 86.4725 35.3203 86.0758 35.381C85.6838 35.4417 85.3292 35.514 85.0118 35.598C84.7972 35.6587 84.5895 35.745 84.3888 35.857C84.1882 35.9643 84.0225 36.109 83.8918 36.291C83.7658 36.473 83.7028 36.6993 83.7028 36.97C83.7028 37.1893 83.7565 37.4017 83.8638 37.607C83.9758 37.8123 84.1532 37.9827 84.3958 38.118C84.6432 38.2533 84.9698 38.321 85.3758 38.321ZM91.2331 39V31.44H92.1571V33.26L91.9751 33.022C92.0591 32.798 92.1688 32.5927 92.3041 32.406C92.4395 32.2147 92.5865 32.0583 92.7451 31.937C92.9411 31.7643 93.1698 31.6337 93.4311 31.545C93.6925 31.4517 93.9561 31.398 94.2221 31.384C94.4881 31.3653 94.7308 31.384 94.9501 31.44V32.406C94.6748 32.336 94.3738 32.3197 94.0471 32.357C93.7205 32.3943 93.4195 32.525 93.1441 32.749C92.8921 32.945 92.7031 33.1807 92.5771 33.456C92.4511 33.7267 92.3671 34.016 92.3251 34.324C92.2831 34.6273 92.2621 34.9283 92.2621 35.227V39H91.2331ZM97.6203 42.36L99.0833 38.391L99.1043 39.567L95.7933 31.44H96.8853L99.6013 38.237H99.1533L101.659 31.44H102.709L98.6493 42.36H97.6203Z" fill="#212B36"/>
<path d="M46.4625 77.4875V74.525H49.475V77.4875H46.4625ZM46.4625 57.4875V54.525H49.475V57.4875H46.4625ZM48.0375 75.375C46.7708 75.375 45.6375 75.1417 44.6375 74.675C43.6375 74.2083 42.8167 73.55 42.175 72.7C41.5417 71.85 41.1375 70.8417 40.9625 69.675L43.9375 69.2C44.1708 70.225 44.6708 71.0417 45.4375 71.65C46.2125 72.25 47.1375 72.55 48.2125 72.55C49.2458 72.55 50.0958 72.3083 50.7625 71.825C51.4292 71.3333 51.7625 70.7125 51.7625 69.9625C51.7625 69.4375 51.6042 69.0125 51.2875 68.6875C50.9708 68.3542 50.4625 68.0792 49.7625 67.8625L45.425 66.5125C42.9 65.7292 41.6375 64.1958 41.6375 61.9125C41.6375 60.8458 41.8917 59.9167 42.4 59.125C42.9167 58.325 43.6417 57.7125 44.575 57.2875C45.5083 56.8542 46.6083 56.6417 47.875 56.65C49.05 56.6583 50.0958 56.8708 51.0125 57.2875C51.9375 57.7042 52.7042 58.3042 53.3125 59.0875C53.9292 59.8708 54.3667 60.8125 54.625 61.9125L51.5375 62.475C51.4208 61.8833 51.1917 61.3625 50.85 60.9125C50.5083 60.4625 50.0792 60.1125 49.5625 59.8625C49.0458 59.6125 48.4708 59.4792 47.8375 59.4625C47.2292 59.4542 46.6833 59.55 46.2 59.75C45.7167 59.9417 45.3333 60.2167 45.05 60.575C44.7667 60.925 44.625 61.3208 44.625 61.7625C44.625 62.2542 44.8208 62.675 45.2125 63.025C45.6125 63.375 46.2417 63.675 47.1 63.925L50.3375 64.8625C51.8958 65.3125 53.0167 65.925 53.7 66.7C54.3917 67.4667 54.7375 68.4875 54.7375 69.7625C54.7375 70.8792 54.4583 71.8583 53.9 72.7C53.3417 73.5417 52.5583 74.2 51.55 74.675C50.5417 75.1417 49.3708 75.375 48.0375 75.375ZM60.9332 75V60.2875L57.5582 62.35V59.025L60.9332 57H64.0082V75H60.9332ZM67.8792 78.1875L68.0542 76.8875C68.4375 76.9208 68.7417 76.8542 68.9667 76.6875C69.1917 76.5292 69.3417 76.3 69.4167 76C69.5 75.7083 69.5208 75.375 69.4792 75H67.8792V71.7875H70.9667V75.125C70.9667 76.2167 70.7083 77.0417 70.1917 77.6C69.675 78.1583 68.9042 78.3542 67.8792 78.1875ZM83.557 75V72.025H75.582V69.2125L81.3445 57H84.782L79.0195 69.2125H83.557V64.525H86.607V69.2125H88.2945V72.025H86.607V75H83.557ZM97.8769 75.375C96.7019 75.375 95.6436 75.1 94.7019 74.55C93.7686 73.9917 93.0269 73.2208 92.4769 72.2375C91.9269 71.2542 91.6519 70.125 91.6519 68.85V63.375C91.6519 62.0083 91.9227 60.8208 92.4644 59.8125C93.0144 58.8042 93.7811 58.025 94.7644 57.475C95.7561 56.925 96.9061 56.65 98.2144 56.65C99.1227 56.65 99.9852 56.8042 100.802 57.1125C101.619 57.4125 102.344 57.8958 102.977 58.5625L100.802 60.675C100.485 60.3 100.098 60.0042 99.6394 59.7875C99.1894 59.5708 98.7144 59.4625 98.2144 59.4625C97.5144 59.4625 96.9019 59.6292 96.3769 59.9625C95.8519 60.2875 95.4436 60.7167 95.1519 61.25C94.8686 61.7833 94.7269 62.3542 94.7269 62.9625V65.95L94.1769 65.35C94.6936 64.75 95.3144 64.2833 96.0394 63.95C96.7644 63.6083 97.5227 63.4375 98.3144 63.4375C99.4477 63.4375 100.448 63.6958 101.314 64.2125C102.181 64.7208 102.864 65.4208 103.364 66.3125C103.864 67.1958 104.114 68.2042 104.114 69.3375C104.114 70.4625 103.827 71.4833 103.252 72.4C102.685 73.3083 101.931 74.0333 100.989 74.575C100.048 75.1083 99.0102 75.375 97.8769 75.375ZM97.8769 72.4875C98.4602 72.4875 98.9936 72.35 99.4769 72.075C99.9602 71.7917 100.344 71.4125 100.627 70.9375C100.919 70.4542 101.064 69.9208 101.064 69.3375C101.064 68.7542 100.923 68.2208 100.639 67.7375C100.356 67.2542 99.9727 66.8708 99.4894 66.5875C99.0144 66.2958 98.4852 66.15 97.9019 66.15C97.3186 66.15 96.7852 66.2958 96.3019 66.5875C95.8186 66.8708 95.4352 67.2542 95.1519 67.7375C94.8686 68.2208 94.7269 68.7542 94.7269 69.3375C94.7269 69.9042 94.8644 70.4292 95.1394 70.9125C95.4227 71.3875 95.8019 71.7708 96.2769 72.0625C96.7602 72.3458 97.2936 72.4875 97.8769 72.4875ZM113.764 75.375C112.589 75.375 111.531 75.1 110.589 74.55C109.656 73.9917 108.914 73.2208 108.364 72.2375C107.814 71.2542 107.539 70.125 107.539 68.85V63.375C107.539 62.0083 107.81 60.8208 108.352 59.8125C108.902 58.8042 109.668 58.025 110.652 57.475C111.643 56.925 112.793 56.65 114.102 56.65C115.01 56.65 115.873 56.8042 116.689 57.1125C117.506 57.4125 118.231 57.8958 118.864 58.5625L116.689 60.675C116.373 60.3 115.985 60.0042 115.527 59.7875C115.077 59.5708 114.602 59.4625 114.102 59.4625C113.402 59.4625 112.789 59.6292 112.264 59.9625C111.739 60.2875 111.331 60.7167 111.039 61.25C110.756 61.7833 110.614 62.3542 110.614 62.9625V65.95L110.064 65.35C110.581 64.75 111.202 64.2833 111.927 63.95C112.652 63.6083 113.41 63.4375 114.202 63.4375C115.335 63.4375 116.335 63.6958 117.202 64.2125C118.068 64.7208 118.752 65.4208 119.252 66.3125C119.752 67.1958 120.002 68.2042 120.002 69.3375C120.002 70.4625 119.714 71.4833 119.139 72.4C118.573 73.3083 117.818 74.0333 116.877 74.575C115.935 75.1083 114.898 75.375 113.764 75.375ZM113.764 72.4875C114.348 72.4875 114.881 72.35 115.364 72.075C115.848 71.7917 116.231 71.4125 116.514 70.9375C116.806 70.4542 116.952 69.9208 116.952 69.3375C116.952 68.7542 116.81 68.2208 116.527 67.7375C116.243 67.2542 115.86 66.8708 115.377 66.5875C114.902 66.2958 114.373 66.15 113.789 66.15C113.206 66.15 112.673 66.2958 112.189 66.5875C111.706 66.8708 111.323 67.2542 111.039 67.7375C110.756 68.2208 110.614 68.7542 110.614 69.3375C110.614 69.9042 110.752 70.4292 111.027 70.9125C111.31 71.3875 111.689 71.7708 112.164 72.0625C112.648 72.3458 113.181 72.4875 113.764 72.4875ZM123.177 78.1875L123.352 76.8875C123.735 76.9208 124.039 76.8542 124.264 76.6875C124.489 76.5292 124.639 76.3 124.714 76C124.797 75.7083 124.818 75.375 124.777 75H123.177V71.7875H126.264V75.125C126.264 76.2167 126.006 77.0417 125.489 77.6C124.972 78.1583 124.202 78.3542 123.177 78.1875ZM137.267 75.375C136.075 75.375 135.017 75.1333 134.092 74.65C133.167 74.1667 132.442 73.4958 131.917 72.6375C131.392 71.7792 131.129 70.7958 131.129 69.6875C131.129 68.6958 131.359 67.775 131.817 66.925C132.275 66.075 132.946 65.3958 133.829 64.8875L133.767 65.85C133.075 65.325 132.538 64.7208 132.154 64.0375C131.779 63.3458 131.592 62.5708 131.592 61.7125C131.592 60.6792 131.834 59.7833 132.317 59.025C132.809 58.2667 133.479 57.6792 134.329 57.2625C135.179 56.8375 136.159 56.625 137.267 56.625C138.375 56.625 139.354 56.8375 140.204 57.2625C141.063 57.6792 141.734 58.2667 142.217 59.025C142.709 59.7833 142.954 60.6792 142.954 61.7125C142.954 62.5708 142.771 63.3417 142.404 64.025C142.046 64.7083 141.5 65.325 140.767 65.875L140.754 64.9C141.621 65.3917 142.284 66.0667 142.742 66.925C143.209 67.775 143.442 68.6958 143.442 69.6875C143.442 70.7958 143.175 71.7792 142.642 72.6375C142.117 73.4958 141.388 74.1667 140.454 74.65C139.529 75.1333 138.467 75.375 137.267 75.375ZM137.267 72.5375C138.15 72.5375 138.867 72.2958 139.417 71.8125C139.975 71.3292 140.254 70.6208 140.254 69.6875C140.254 68.7542 139.979 68.0458 139.429 67.5625C138.879 67.0708 138.159 66.825 137.267 66.825C136.384 66.825 135.671 67.0708 135.129 67.5625C134.588 68.0458 134.317 68.7542 134.317 69.6875C134.317 70.6208 134.588 71.3292 135.129 71.8125C135.671 72.2958 136.384 72.5375 137.267 72.5375ZM137.267 63.9625C138.009 63.9625 138.609 63.7792 139.067 63.4125C139.534 63.0375 139.767 62.4708 139.767 61.7125C139.767 60.9542 139.534 60.3917 139.067 60.025C138.609 59.65 138.009 59.4625 137.267 59.4625C136.534 59.4625 135.934 59.65 135.467 60.025C135.009 60.3917 134.779 60.9542 134.779 61.7125C134.779 62.4708 135.009 63.0375 135.467 63.4125C135.934 63.7792 136.534 63.9625 137.267 63.9625ZM147.959 75L154.159 59.85H146.297V57H157.384V59.85L151.209 75H147.959ZM166.075 75.375C165.158 75.375 164.304 75.1875 163.512 74.8125C162.72 74.4292 162.037 73.9042 161.462 73.2375C160.895 72.5708 160.487 71.7958 160.237 70.9125L163.137 70.1375C163.254 70.6208 163.466 71.0375 163.775 71.3875C164.091 71.7375 164.458 72.0083 164.875 72.2C165.3 72.3917 165.737 72.4875 166.187 72.4875C166.77 72.4875 167.304 72.3458 167.787 72.0625C168.27 71.7792 168.654 71.4 168.937 70.925C169.22 70.4417 169.362 69.9083 169.362 69.325C169.362 68.7417 169.216 68.2125 168.925 67.7375C168.641 67.2542 168.258 66.875 167.775 66.6C167.291 66.3167 166.762 66.175 166.187 66.175C165.495 66.175 164.92 66.3 164.462 66.55C164.012 66.8 163.666 67.0667 163.425 67.35L160.85 66.525L161.4 57H171.175V59.825H163.012L164.137 58.7625L163.737 65.3875L163.187 64.7125C163.654 64.2875 164.195 63.9708 164.812 63.7625C165.429 63.5542 166.025 63.45 166.6 63.45C167.725 63.45 168.72 63.7083 169.587 64.225C170.462 64.7333 171.145 65.4292 171.637 66.3125C172.137 67.1958 172.387 68.2 172.387 69.325C172.387 70.45 172.095 71.4708 171.512 72.3875C170.929 73.2958 170.158 74.0208 169.2 74.5625C168.25 75.1042 167.208 75.375 166.075 75.375Z" fill="black"/>
<path d="M481.389 58.21C480.759 58.21 480.185 58.0583 479.667 57.755C479.154 57.447 478.743 57.0317 478.435 56.509C478.132 55.9817 477.98 55.389 477.98 54.731V51.238C477.98 50.5613 478.132 49.9593 478.435 49.432C478.738 48.9 479.151 48.4823 479.674 48.179C480.201 47.871 480.799 47.717 481.466 47.717C482.04 47.717 482.572 47.843 483.062 48.095C483.557 48.347 483.96 48.6993 484.273 49.152L483.482 49.803C483.267 49.467 482.983 49.1987 482.628 48.998C482.273 48.7973 481.886 48.697 481.466 48.697C480.995 48.697 480.575 48.8113 480.206 49.04C479.837 49.2687 479.548 49.5697 479.338 49.943C479.128 50.3117 479.023 50.713 479.023 51.147V53.345L478.764 53.051C479.058 52.589 479.443 52.2157 479.919 51.931C480.4 51.6463 480.922 51.504 481.487 51.504C482.112 51.504 482.675 51.6533 483.174 51.952C483.673 52.246 484.07 52.645 484.364 53.149C484.658 53.653 484.805 54.2177 484.805 54.843C484.805 55.4637 484.649 56.0283 484.336 56.537C484.028 57.0457 483.615 57.4517 483.097 57.755C482.584 58.0583 482.014 58.21 481.389 58.21ZM481.389 57.209C481.828 57.209 482.227 57.104 482.586 56.894C482.95 56.684 483.237 56.3993 483.447 56.04C483.662 55.6807 483.769 55.2817 483.769 54.843C483.769 54.4043 483.662 54.0053 483.447 53.646C483.237 53.282 482.952 52.995 482.593 52.785C482.234 52.5703 481.835 52.463 481.396 52.463C480.957 52.463 480.558 52.5703 480.199 52.785C479.84 52.995 479.553 53.282 479.338 53.646C479.128 54.0053 479.023 54.4043 479.023 54.843C479.023 55.277 479.128 55.6737 479.338 56.033C479.548 56.3923 479.833 56.6793 480.192 56.894C480.551 57.104 480.95 57.209 481.389 57.209ZM490.184 58V47.92H491.129L495.091 56.397L499.032 47.92H499.991V57.993H499.011V50.216L495.42 58H494.755L491.171 50.216V58H490.184ZM505.473 58.21C504.722 58.21 504.08 58.0397 503.548 57.699C503.016 57.3583 502.608 56.887 502.323 56.285C502.038 55.683 501.896 54.9923 501.896 54.213C501.896 53.4197 502.041 52.7243 502.33 52.127C502.619 51.5297 503.03 51.0653 503.562 50.734C504.099 50.398 504.736 50.23 505.473 50.23C506.229 50.23 506.873 50.4003 507.405 50.741C507.942 51.077 508.35 51.546 508.63 52.148C508.915 52.7453 509.057 53.4337 509.057 54.213C509.057 55.0063 508.915 55.704 508.63 56.306C508.345 56.9033 507.935 57.37 507.398 57.706C506.861 58.042 506.22 58.21 505.473 58.21ZM505.473 57.223C506.313 57.223 506.938 56.9453 507.349 56.39C507.76 55.83 507.965 55.1043 507.965 54.213C507.965 53.2983 507.757 52.5703 507.342 52.029C506.931 51.4877 506.308 51.217 505.473 51.217C504.908 51.217 504.442 51.3453 504.073 51.602C503.709 51.854 503.436 52.2063 503.254 52.659C503.077 53.107 502.988 53.625 502.988 54.213C502.988 55.123 503.198 55.8533 503.618 56.404C504.038 56.95 504.656 57.223 505.473 57.223ZM516.421 58V54.143C516.421 53.723 516.381 53.338 516.302 52.988C516.223 52.6333 516.094 52.3253 515.917 52.064C515.744 51.798 515.518 51.5927 515.238 51.448C514.963 51.3033 514.627 51.231 514.23 51.231C513.866 51.231 513.544 51.294 513.264 51.42C512.989 51.546 512.755 51.728 512.564 51.966C512.377 52.1993 512.235 52.484 512.137 52.82C512.039 53.156 511.99 53.5387 511.99 53.968L511.262 53.807C511.262 53.0323 511.397 52.3813 511.668 51.854C511.939 51.3267 512.312 50.9277 512.788 50.657C513.264 50.3863 513.81 50.251 514.426 50.251C514.879 50.251 515.273 50.321 515.609 50.461C515.95 50.601 516.237 50.79 516.47 51.028C516.708 51.266 516.899 51.539 517.044 51.847C517.189 52.1503 517.294 52.4747 517.359 52.82C517.424 53.1607 517.457 53.5013 517.457 53.842V58H516.421ZM510.954 58V50.44H511.885V52.302H511.99V58H510.954ZM523.75 58C523.325 58.0887 522.905 58.1237 522.49 58.105C522.079 58.0863 521.71 57.9977 521.384 57.839C521.062 57.6803 520.817 57.433 520.649 57.097C520.513 56.817 520.439 56.5347 520.425 56.25C520.415 55.9607 520.411 55.6317 520.411 55.263V48.34H521.433V55.221C521.433 55.5383 521.435 55.8043 521.44 56.019C521.449 56.229 521.498 56.4157 521.587 56.579C521.755 56.8917 522.021 57.0783 522.385 57.139C522.753 57.1997 523.208 57.1857 523.75 57.097V58ZM518.794 51.322V50.44H523.75V51.322H518.794ZM531.059 58V54.143C531.059 53.723 531.019 53.338 530.94 52.988C530.861 52.6333 530.732 52.3253 530.555 52.064C530.382 51.798 530.156 51.5927 529.876 51.448C529.601 51.3033 529.265 51.231 528.868 51.231C528.504 51.231 528.182 51.294 527.902 51.42C527.627 51.546 527.393 51.728 527.202 51.966C527.015 52.1993 526.873 52.484 526.775 52.82C526.677 53.156 526.628 53.5387 526.628 53.968L525.9 53.807C525.9 53.0323 526.035 52.3813 526.306 51.854C526.577 51.3267 526.95 50.9277 527.426 50.657C527.902 50.3863 528.448 50.251 529.064 50.251C529.517 50.251 529.911 50.321 530.247 50.461C530.588 50.601 530.875 50.79 531.108 51.028C531.346 51.266 531.537 51.539 531.682 51.847C531.827 52.1503 531.932 52.4747 531.997 52.82C532.062 53.1607 532.095 53.5013 532.095 53.842V58H531.059ZM525.592 58V47.92H526.523V53.611H526.628V58H525.592ZM537.092 58.203C536.206 58.203 535.475 58.0117 534.901 57.629C534.332 57.2463 533.982 56.7143 533.851 56.033L534.901 55.858C535.013 56.2873 535.268 56.6303 535.664 56.887C536.066 57.139 536.56 57.265 537.148 57.265C537.722 57.265 538.175 57.146 538.506 56.908C538.838 56.6653 539.003 56.3363 539.003 55.921C539.003 55.6877 538.95 55.4987 538.842 55.354C538.74 55.2047 538.527 55.067 538.205 54.941C537.883 54.815 537.403 54.6657 536.763 54.493C536.077 54.3063 535.541 54.1197 535.153 53.933C534.766 53.7463 534.491 53.5317 534.327 53.289C534.164 53.0417 534.082 52.7407 534.082 52.386C534.082 51.9567 534.204 51.581 534.446 51.259C534.689 50.9323 535.025 50.6803 535.454 50.503C535.884 50.321 536.383 50.23 536.952 50.23C537.522 50.23 538.03 50.3233 538.478 50.51C538.931 50.692 539.295 50.9487 539.57 51.28C539.846 51.6113 540.009 51.9963 540.06 52.435L539.01 52.624C538.94 52.1807 538.719 51.8307 538.345 51.574C537.977 51.3127 537.508 51.1773 536.938 51.168C536.402 51.154 535.965 51.2567 535.629 51.476C535.293 51.6907 535.125 51.9777 535.125 52.337C535.125 52.5377 535.186 52.7103 535.307 52.855C535.429 52.995 535.648 53.128 535.965 53.254C536.287 53.38 536.745 53.5177 537.337 53.667C538.033 53.8443 538.579 54.031 538.975 54.227C539.372 54.423 539.654 54.654 539.822 54.92C539.99 55.186 540.074 55.515 540.074 55.907C540.074 56.621 539.808 57.1833 539.276 57.594C538.749 58 538.021 58.203 537.092 58.203Z" fill="#212B36"/>
<g clip-path="url(#clip0_123_173)">
<path d="M551.928 49.772L555.6 53.436L559.272 49.772L560.4 50.9L555.6 55.7L550.8 50.9L551.928 49.772Z" fill="#212B36"/>
</g>
<line x1="60" y1="322.75" x2="553.013" y2="322.75" stroke="#D9D9D9"/>
<path d="M64.702 343.203C64.03 343.203 63.4537 343.016 62.973 342.643C62.4923 342.27 62.168 341.77 62 341.145L63.029 340.9C63.113 341.269 63.3067 341.581 63.61 341.838C63.918 342.09 64.2797 342.216 64.695 342.216C64.9563 342.216 65.22 342.153 65.486 342.027C65.7567 341.901 65.969 341.693 66.123 341.404C66.2257 341.203 66.284 340.986 66.298 340.753C66.3167 340.515 66.326 340.23 66.326 339.899V332.92H67.362V339.899C67.362 340.179 67.3597 340.433 67.355 340.662C67.3503 340.886 67.3247 341.103 67.278 341.313C67.236 341.518 67.1543 341.726 67.033 341.936C66.7903 342.361 66.4637 342.678 66.053 342.888C65.647 343.098 65.1967 343.203 64.702 343.203ZM71.9971 343.21C71.4278 343.21 70.9495 343.107 70.5621 342.902C70.1795 342.697 69.8925 342.424 69.7011 342.083C69.5098 341.742 69.4141 341.371 69.4141 340.97C69.4141 340.559 69.4958 340.209 69.6591 339.92C69.8271 339.626 70.0535 339.386 70.3381 339.199C70.6275 339.012 70.9611 338.87 71.3391 338.772C71.7218 338.679 72.1441 338.597 72.6061 338.527C73.0728 338.452 73.5278 338.389 73.9711 338.338C74.4191 338.282 74.8111 338.228 75.1471 338.177L74.7831 338.401C74.7971 337.654 74.6525 337.101 74.3491 336.742C74.0458 336.383 73.5185 336.203 72.7671 336.203C72.2491 336.203 71.8105 336.32 71.4511 336.553C71.0965 336.786 70.8468 337.155 70.7021 337.659L69.7011 337.365C69.8738 336.688 70.2215 336.163 70.7441 335.79C71.2668 335.417 71.9458 335.23 72.7811 335.23C73.4718 335.23 74.0575 335.361 74.5381 335.622C75.0235 335.879 75.3665 336.252 75.5671 336.742C75.6605 336.961 75.7211 337.206 75.7491 337.477C75.7771 337.748 75.7911 338.023 75.7911 338.303V343H74.8741V341.103L75.1401 341.215C74.8835 341.864 74.4845 342.358 73.9431 342.699C73.4018 343.04 72.7531 343.21 71.9971 343.21ZM72.1161 342.321C72.5968 342.321 73.0168 342.235 73.3761 342.062C73.7355 341.889 74.0248 341.654 74.2441 341.355C74.4635 341.052 74.6058 340.711 74.6711 340.333C74.7271 340.09 74.7575 339.824 74.7621 339.535C74.7668 339.241 74.7691 339.022 74.7691 338.877L75.1611 339.08C74.8111 339.127 74.4308 339.173 74.0201 339.22C73.6141 339.267 73.2128 339.32 72.8161 339.381C72.4241 339.442 72.0695 339.514 71.7521 339.598C71.5375 339.659 71.3298 339.745 71.1291 339.857C70.9285 339.964 70.7628 340.109 70.6321 340.291C70.5061 340.473 70.4431 340.699 70.4431 340.97C70.4431 341.189 70.4968 341.402 70.6041 341.607C70.7161 341.812 70.8935 341.983 71.1361 342.118C71.3835 342.253 71.7101 342.321 72.1161 342.321ZM83.4334 343V339.143C83.4334 338.723 83.3938 338.338 83.3144 337.988C83.2351 337.633 83.1068 337.325 82.9294 337.064C82.7568 336.798 82.5304 336.593 82.2504 336.448C81.9751 336.303 81.6391 336.231 81.2424 336.231C80.8784 336.231 80.5564 336.294 80.2764 336.42C80.0011 336.546 79.7678 336.728 79.5764 336.966C79.3898 337.199 79.2474 337.484 79.1494 337.82C79.0514 338.156 79.0024 338.539 79.0024 338.968L78.2744 338.807C78.2744 338.032 78.4098 337.381 78.6804 336.854C78.9511 336.327 79.3244 335.928 79.8004 335.657C80.2764 335.386 80.8224 335.251 81.4384 335.251C81.8911 335.251 82.2854 335.321 82.6214 335.461C82.9621 335.601 83.2491 335.79 83.4824 336.028C83.7204 336.266 83.9118 336.539 84.0564 336.847C84.2011 337.15 84.3061 337.475 84.3714 337.82C84.4368 338.161 84.4694 338.501 84.4694 338.842V343H83.4334ZM77.9664 343V335.44H78.8974V337.302H79.0024V343H77.9664Z" fill="black"/>
<path d="M153.18 343V332.92H158.969V333.949H154.209V337.449H158.129V338.471H154.209V343H153.18ZM163.589 343.21C162.851 343.21 162.212 343.047 161.671 342.72C161.134 342.393 160.716 341.934 160.418 341.341C160.119 340.748 159.97 340.053 159.97 339.255C159.97 338.429 160.117 337.715 160.411 337.113C160.705 336.511 161.118 336.047 161.65 335.72C162.186 335.393 162.819 335.23 163.547 335.23C164.293 335.23 164.93 335.403 165.458 335.748C165.985 336.089 166.384 336.579 166.655 337.218C166.925 337.857 167.049 338.62 167.026 339.507H165.976V339.143C165.957 338.163 165.745 337.423 165.339 336.924C164.937 336.425 164.349 336.175 163.575 336.175C162.763 336.175 162.14 336.439 161.706 336.966C161.276 337.493 161.062 338.245 161.062 339.22C161.062 340.172 161.276 340.912 161.706 341.439C162.14 341.962 162.753 342.223 163.547 342.223C164.088 342.223 164.559 342.099 164.961 341.852C165.367 341.6 165.686 341.238 165.92 340.767L166.879 341.138C166.58 341.796 166.139 342.307 165.556 342.671C164.977 343.03 164.321 343.21 163.589 343.21ZM160.698 339.507V338.646H166.473V339.507H160.698ZM172.334 343.21C171.639 343.21 171.051 343.035 170.57 342.685C170.089 342.33 169.725 341.852 169.478 341.25C169.231 340.643 169.107 339.964 169.107 339.213C169.107 338.448 169.231 337.766 169.478 337.169C169.73 336.567 170.099 336.093 170.584 335.748C171.069 335.403 171.667 335.23 172.376 335.23C173.067 335.23 173.659 335.405 174.154 335.755C174.649 336.105 175.027 336.581 175.288 337.183C175.554 337.785 175.687 338.462 175.687 339.213C175.687 339.969 175.554 340.648 175.288 341.25C175.022 341.852 174.639 342.33 174.14 342.685C173.641 343.035 173.039 343.21 172.334 343.21ZM168.932 343V332.92H169.968V337.309H169.856V343H168.932ZM172.229 342.251C172.756 342.251 173.195 342.118 173.545 341.852C173.895 341.586 174.156 341.224 174.329 340.767C174.506 340.305 174.595 339.787 174.595 339.213C174.595 338.644 174.509 338.13 174.336 337.673C174.163 337.216 173.9 336.854 173.545 336.588C173.195 336.322 172.749 336.189 172.208 336.189C171.681 336.189 171.242 336.317 170.892 336.574C170.547 336.831 170.288 337.188 170.115 337.645C169.942 338.098 169.856 338.62 169.856 339.213C169.856 339.796 169.942 340.319 170.115 340.781C170.288 341.238 170.549 341.598 170.899 341.859C171.249 342.12 171.692 342.251 172.229 342.251Z" fill="black"/>
<path d="M244.38 343V332.92H245.325L249.287 341.397L253.228 332.92H254.187V342.993H253.207V335.216L249.616 343H248.951L245.367 335.216V343H244.38ZM258.674 343.21C258.105 343.21 257.627 343.107 257.239 342.902C256.857 342.697 256.57 342.424 256.378 342.083C256.187 341.742 256.091 341.371 256.091 340.97C256.091 340.559 256.173 340.209 256.336 339.92C256.504 339.626 256.731 339.386 257.015 339.199C257.305 339.012 257.638 338.87 258.016 338.772C258.399 338.679 258.821 338.597 259.283 338.527C259.75 338.452 260.205 338.389 260.648 338.338C261.096 338.282 261.488 338.228 261.824 338.177L261.46 338.401C261.474 337.654 261.33 337.101 261.026 336.742C260.723 336.383 260.196 336.203 259.444 336.203C258.926 336.203 258.488 336.32 258.128 336.553C257.774 336.786 257.524 337.155 257.379 337.659L256.378 337.365C256.551 336.688 256.899 336.163 257.421 335.79C257.944 335.417 258.623 335.23 259.458 335.23C260.149 335.23 260.735 335.361 261.215 335.622C261.701 335.879 262.044 336.252 262.244 336.742C262.338 336.961 262.398 337.206 262.426 337.477C262.454 337.748 262.468 338.023 262.468 338.303V343H261.551V341.103L261.817 341.215C261.561 341.864 261.162 342.358 260.62 342.699C260.079 343.04 259.43 343.21 258.674 343.21ZM258.793 342.321C259.274 342.321 259.694 342.235 260.053 342.062C260.413 341.889 260.702 341.654 260.921 341.355C261.141 341.052 261.283 340.711 261.348 340.333C261.404 340.09 261.435 339.824 261.439 339.535C261.444 339.241 261.446 339.022 261.446 338.877L261.838 339.08C261.488 339.127 261.108 339.173 260.697 339.22C260.291 339.267 259.89 339.32 259.493 339.381C259.101 339.442 258.747 339.514 258.429 339.598C258.215 339.659 258.007 339.745 257.806 339.857C257.606 339.964 257.44 340.109 257.309 340.291C257.183 340.473 257.12 340.699 257.12 340.97C257.12 341.189 257.174 341.402 257.281 341.607C257.393 341.812 257.571 341.983 257.813 342.118C258.061 342.253 258.387 342.321 258.793 342.321ZM264.651 343V335.44H265.575V337.26L265.393 337.022C265.477 336.798 265.586 336.593 265.722 336.406C265.857 336.215 266.004 336.058 266.163 335.937C266.359 335.764 266.587 335.634 266.849 335.545C267.11 335.452 267.374 335.398 267.64 335.384C267.906 335.365 268.148 335.384 268.368 335.44V336.406C268.092 336.336 267.791 336.32 267.465 336.357C267.138 336.394 266.837 336.525 266.562 336.749C266.31 336.945 266.121 337.181 265.995 337.456C265.869 337.727 265.785 338.016 265.743 338.324C265.701 338.627 265.68 338.928 265.68 339.227V343H264.651Z" fill="black"/>
<path d="M335.88 343L339.352 332.92H340.717L344.189 343H343.118L339.821 333.494H340.227L336.951 343H335.88ZM337.427 340.557V339.591H342.635V340.557H337.427ZM349.208 343.21C348.513 343.21 347.925 343.035 347.444 342.685C346.963 342.33 346.599 341.852 346.352 341.25C346.105 340.643 345.981 339.964 345.981 339.213C345.981 338.448 346.105 337.766 346.352 337.169C346.604 336.567 346.973 336.093 347.458 335.748C347.943 335.403 348.541 335.23 349.25 335.23C349.941 335.23 350.533 335.405 351.028 335.755C351.523 336.105 351.901 336.581 352.162 337.183C352.428 337.785 352.561 338.462 352.561 339.213C352.561 339.969 352.428 340.648 352.162 341.25C351.896 341.852 351.513 342.33 351.014 342.685C350.515 343.035 349.913 343.21 349.208 343.21ZM345.806 346.36V335.44H346.73V341.131H346.842V346.36H345.806ZM349.103 342.251C349.63 342.251 350.069 342.118 350.419 341.852C350.769 341.586 351.03 341.224 351.203 340.767C351.38 340.305 351.469 339.787 351.469 339.213C351.469 338.644 351.383 338.13 351.21 337.673C351.037 337.216 350.774 336.854 350.419 336.588C350.069 336.322 349.623 336.189 349.082 336.189C348.555 336.189 348.116 336.317 347.766 336.574C347.421 336.831 347.162 337.188 346.989 337.645C346.816 338.098 346.73 338.62 346.73 339.213C346.73 339.796 346.816 340.319 346.989 340.781C347.162 341.238 347.423 341.598 347.773 341.859C348.123 342.12 348.566 342.251 349.103 342.251ZM354.458 343V335.44H355.382V337.26L355.2 337.022C355.284 336.798 355.394 336.593 355.529 336.406C355.665 336.215 355.812 336.058 355.97 335.937C356.166 335.764 356.395 335.634 356.656 335.545C356.918 335.452 357.181 335.398 357.447 335.384C357.713 335.365 357.956 335.384 358.175 335.44V336.406C357.9 336.336 357.599 336.32 357.272 336.357C356.946 336.394 356.645 336.525 356.369 336.749C356.117 336.945 355.928 337.181 355.802 337.456C355.676 337.727 355.592 338.016 355.55 338.324C355.508 338.627 355.487 338.928 355.487 339.227V343H354.458Z" fill="black"/>
<path d="M425.78 343V332.92H426.725L430.687 341.397L434.628 332.92H435.587V342.993H434.607V335.216L431.016 343H430.351L426.767 335.216V343H425.78ZM440.075 343.21C439.505 343.21 439.027 343.107 438.64 342.902C438.257 342.697 437.97 342.424 437.779 342.083C437.587 341.742 437.492 341.371 437.492 340.97C437.492 340.559 437.573 340.209 437.737 339.92C437.905 339.626 438.131 339.386 438.416 339.199C438.705 339.012 439.039 338.87 439.417 338.772C439.799 338.679 440.222 338.597 440.684 338.527C441.15 338.452 441.605 338.389 442.049 338.338C442.497 338.282 442.889 338.228 443.225 338.177L442.861 338.401C442.875 337.654 442.73 337.101 442.427 336.742C442.123 336.383 441.596 336.203 440.845 336.203C440.327 336.203 439.888 336.32 439.529 336.553C439.174 336.786 438.924 337.155 438.78 337.659L437.779 337.365C437.951 336.688 438.299 336.163 438.822 335.79C439.344 335.417 440.023 335.23 440.859 335.23C441.549 335.23 442.135 335.361 442.616 335.622C443.101 335.879 443.444 336.252 443.645 336.742C443.738 336.961 443.799 337.206 443.827 337.477C443.855 337.748 443.869 338.023 443.869 338.303V343H442.952V341.103L443.218 341.215C442.961 341.864 442.562 342.358 442.021 342.699C441.479 343.04 440.831 343.21 440.075 343.21ZM440.194 342.321C440.674 342.321 441.094 342.235 441.454 342.062C441.813 341.889 442.102 341.654 442.322 341.355C442.541 341.052 442.683 340.711 442.749 340.333C442.805 340.09 442.835 339.824 442.84 339.535C442.844 339.241 442.847 339.022 442.847 338.877L443.239 339.08C442.889 339.127 442.508 339.173 442.098 339.22C441.692 339.267 441.29 339.32 440.894 339.381C440.502 339.442 440.147 339.514 439.83 339.598C439.615 339.659 439.407 339.745 439.207 339.857C439.006 339.964 438.84 340.109 438.71 340.291C438.584 340.473 438.521 340.699 438.521 340.97C438.521 341.189 438.574 341.402 438.682 341.607C438.794 341.812 438.971 341.983 439.214 342.118C439.461 342.253 439.788 342.321 440.194 342.321ZM446.705 346.36L448.168 342.391L448.189 343.567L444.878 335.44H445.97L448.686 342.237H448.238L450.744 335.44H451.794L447.734 346.36H446.705Z" fill="black"/>
<path d="M521.702 343.203C521.03 343.203 520.454 343.016 519.973 342.643C519.492 342.27 519.168 341.77 519 341.145L520.029 340.9C520.113 341.269 520.307 341.581 520.61 341.838C520.918 342.09 521.28 342.216 521.695 342.216C521.956 342.216 522.22 342.153 522.486 342.027C522.757 341.901 522.969 341.693 523.123 341.404C523.226 341.203 523.284 340.986 523.298 340.753C523.317 340.515 523.326 340.23 523.326 339.899V332.92H524.362V339.899C524.362 340.179 524.36 340.433 524.355 340.662C524.35 340.886 524.325 341.103 524.278 341.313C524.236 341.518 524.154 341.726 524.033 341.936C523.79 342.361 523.464 342.678 523.053 342.888C522.647 343.098 522.197 343.203 521.702 343.203ZM529.725 343.189C529.272 343.189 528.876 343.119 528.535 342.979C528.199 342.839 527.912 342.65 527.674 342.412C527.441 342.174 527.252 341.903 527.107 341.6C526.962 341.292 526.857 340.968 526.792 340.627C526.727 340.282 526.694 339.939 526.694 339.598V335.44H527.73V339.297C527.73 339.712 527.77 340.097 527.849 340.452C527.928 340.807 528.054 341.117 528.227 341.383C528.404 341.644 528.631 341.847 528.906 341.992C529.186 342.137 529.524 342.209 529.921 342.209C530.285 342.209 530.605 342.146 530.88 342.02C531.16 341.894 531.393 341.714 531.58 341.481C531.771 341.243 531.916 340.956 532.014 340.62C532.112 340.279 532.161 339.897 532.161 339.472L532.889 339.633C532.889 340.408 532.754 341.059 532.483 341.586C532.212 342.113 531.839 342.512 531.363 342.783C530.887 343.054 530.341 343.189 529.725 343.189ZM532.266 343V341.138H532.161V335.44H533.19V343H532.266ZM540.967 343V339.143C540.967 338.723 540.927 338.338 540.848 337.988C540.768 337.633 540.64 337.325 540.463 337.064C540.29 336.798 540.064 336.593 539.784 336.448C539.508 336.303 539.172 336.231 538.776 336.231C538.412 336.231 538.09 336.294 537.81 336.42C537.534 336.546 537.301 336.728 537.11 336.966C536.923 337.199 536.781 337.484 536.683 337.82C536.585 338.156 536.536 338.539 536.536 338.968L535.808 338.807C535.808 338.032 535.943 337.381 536.214 336.854C536.484 336.327 536.858 335.928 537.334 335.657C537.81 335.386 538.356 335.251 538.972 335.251C539.424 335.251 539.819 335.321 540.155 335.461C540.495 335.601 540.782 335.79 541.016 336.028C541.254 336.266 541.445 336.539 541.59 336.847C541.734 337.15 541.839 337.475 541.905 337.82C541.97 338.161 542.003 338.501 542.003 338.842V343H540.967ZM535.5 343V335.44H536.431V337.302H536.536V343H535.5Z" fill="black"/>
<path d="M27.4566 118.909V109.815H28.0392V118.909H27.4566ZM29.4175 112.544C29.3749 112.184 29.202 111.904 28.8989 111.705C28.5957 111.506 28.2239 111.407 27.7834 111.407C27.4613 111.407 27.1795 111.459 26.9379 111.563C26.6988 111.667 26.5117 111.811 26.3767 111.993C26.244 112.175 26.1777 112.383 26.1777 112.615C26.1777 112.809 26.2239 112.976 26.3163 113.115C26.411 113.253 26.5318 113.368 26.6786 113.46C26.8255 113.55 26.9794 113.625 27.1404 113.684C27.3015 113.741 27.4495 113.787 27.5845 113.822L28.3234 114.021C28.5128 114.071 28.7236 114.14 28.9557 114.227C29.1902 114.315 29.414 114.435 29.6271 114.586C29.8426 114.735 30.0202 114.927 30.16 115.162C30.2997 115.396 30.3695 115.684 30.3695 116.025C30.3695 116.418 30.2665 116.773 30.0605 117.091C29.8568 117.408 29.5584 117.66 29.1653 117.847C28.7745 118.034 28.2997 118.128 27.7408 118.128C27.2198 118.128 26.7686 118.044 26.3873 117.876C26.0084 117.708 25.71 117.473 25.4921 117.172C25.2766 116.872 25.1547 116.522 25.1262 116.124H26.0356C26.0593 116.399 26.1517 116.626 26.3127 116.806C26.4761 116.984 26.6822 117.117 26.9308 117.204C27.1819 117.29 27.4519 117.332 27.7408 117.332C28.0771 117.332 28.379 117.278 28.6466 117.169C28.9143 117.057 29.1262 116.903 29.2825 116.707C29.4388 116.508 29.517 116.276 29.517 116.011C29.517 115.769 29.4495 115.573 29.3145 115.421C29.1795 115.269 29.0019 115.146 28.7816 115.052C28.5614 114.957 28.3234 114.874 28.0676 114.803L27.1724 114.547C26.604 114.384 26.1541 114.15 25.8225 113.847C25.4909 113.544 25.3252 113.147 25.3252 112.657C25.3252 112.25 25.4353 111.895 25.6555 111.592C25.8782 111.286 26.1766 111.049 26.5507 110.881C26.9273 110.711 27.3477 110.625 27.8118 110.625C28.2807 110.625 28.6976 110.709 29.0623 110.877C29.427 111.043 29.7159 111.271 29.929 111.56C30.1446 111.848 30.2582 112.176 30.2701 112.544H29.4175ZM34.1484 118.099C33.6795 118.099 33.2615 118.019 32.8944 117.858C32.5297 117.697 32.2396 117.473 32.0241 117.187C31.8109 116.898 31.6949 116.562 31.6759 116.181H32.5711C32.5901 116.416 32.6706 116.618 32.8127 116.789C32.9548 116.957 33.1407 117.087 33.3704 117.179C33.6001 117.272 33.8547 117.318 34.1342 117.318C34.4468 117.318 34.7239 117.263 34.9654 117.155C35.207 117.046 35.3965 116.894 35.5338 116.7C35.6712 116.506 35.7399 116.281 35.7399 116.025C35.7399 115.757 35.6735 115.522 35.5409 115.318C35.4083 115.112 35.2141 114.951 34.9583 114.835C34.7026 114.719 34.39 114.661 34.0205 114.661H33.4379V113.879H34.0205C34.3094 113.879 34.5628 113.827 34.7807 113.723C35.001 113.619 35.1727 113.472 35.2958 113.282C35.4213 113.093 35.4841 112.87 35.4841 112.615C35.4841 112.368 35.4296 112.154 35.3207 111.972C35.2117 111.789 35.0578 111.647 34.8589 111.545C34.6623 111.443 34.4302 111.393 34.1626 111.393C33.9116 111.393 33.6747 111.439 33.4521 111.531C33.2319 111.621 33.0519 111.753 32.9122 111.925C32.7724 112.096 32.6966 112.302 32.6848 112.544H31.8322C31.8464 112.162 31.9613 111.828 32.1768 111.542C32.3923 111.253 32.6742 111.028 33.0223 110.867C33.3728 110.706 33.7576 110.625 34.1768 110.625C34.6268 110.625 35.0128 110.716 35.3349 110.899C35.657 111.079 35.9044 111.317 36.0773 111.613C36.2502 111.909 36.3367 112.229 36.3367 112.572C36.3367 112.982 36.2289 113.331 36.0134 113.62C35.8002 113.909 35.5101 114.109 35.1431 114.22V114.277C35.6025 114.353 35.9613 114.548 36.2194 114.863C36.4776 115.176 36.6066 115.563 36.6066 116.025C36.6066 116.42 36.4989 116.776 36.2834 117.091C36.0702 117.403 35.7789 117.649 35.4095 117.829C35.04 118.009 34.6197 118.099 34.1484 118.099ZM40.4325 118.099C39.8973 118.099 39.4414 117.954 39.0649 117.663C38.6883 117.369 38.4006 116.944 38.2017 116.387C38.0027 115.828 37.9033 115.153 37.9033 114.362C37.9033 113.576 38.0027 112.905 38.2017 112.348C38.403 111.789 38.6919 111.363 39.0684 111.069C39.4474 110.773 39.9021 110.625 40.4325 110.625C40.963 110.625 41.4166 110.773 41.7931 111.069C42.172 111.363 42.461 111.789 42.6599 112.348C42.8612 112.905 42.9618 113.576 42.9618 114.362C42.9618 115.153 42.8624 115.828 42.6634 116.387C42.4645 116.944 42.1768 117.369 41.8002 117.663C41.4237 117.954 40.9678 118.099 40.4325 118.099ZM40.4325 117.318C40.963 117.318 41.3751 117.062 41.6688 116.551C41.9624 116.039 42.1093 115.31 42.1093 114.362C42.1093 113.732 42.0418 113.196 41.9068 112.753C41.7742 112.31 41.5823 111.973 41.3313 111.741C41.0826 111.509 40.783 111.393 40.4325 111.393C39.9068 111.393 39.4959 111.652 39.1999 112.171C38.9038 112.687 38.7558 113.417 38.7558 114.362C38.7558 114.992 38.8221 115.528 38.9548 115.968C39.0874 116.409 39.278 116.744 39.5267 116.973C39.7777 117.203 40.0797 117.318 40.4325 117.318ZM45.1075 116.011L45.0933 114.973H45.2638L47.651 112.544H48.6883L46.1448 115.115H46.0737L45.1075 116.011ZM44.326 118V110.725H45.1643V118H44.326ZM47.7931 118L45.6617 115.3L46.2585 114.718L48.8588 118H47.7931Z" fill="#4F4F4F"/>
<path d="M27.9353 150.916V141.822H28.5179V150.916H27.9353ZM29.8962 144.551C29.8536 144.191 29.6807 143.911 29.3775 143.712C29.0744 143.513 28.7026 143.414 28.2621 143.414C27.94 143.414 27.6582 143.466 27.4166 143.57C27.1774 143.674 26.9903 143.818 26.8554 144C26.7227 144.182 26.6564 144.39 26.6564 144.622C26.6564 144.816 26.7026 144.983 26.795 145.123C26.8897 145.26 27.0105 145.375 27.1573 145.467C27.3041 145.557 27.4581 145.632 27.6191 145.691C27.7802 145.748 27.9282 145.794 28.0632 145.829L28.8021 146.028C28.9915 146.078 29.2023 146.147 29.4344 146.234C29.6688 146.322 29.8926 146.442 30.1058 146.593C30.3213 146.742 30.4989 146.934 30.6386 147.169C30.7784 147.403 30.8482 147.691 30.8482 148.032C30.8482 148.425 30.7452 148.78 30.5392 149.098C30.3355 149.415 30.0371 149.667 29.644 149.854C29.2532 150.041 28.7784 150.135 28.2195 150.135C27.6985 150.135 27.2473 150.051 26.866 149.883C26.4871 149.715 26.1887 149.48 25.9708 149.179C25.7553 148.879 25.6333 148.529 25.6049 148.131H26.5143C26.538 148.406 26.6304 148.633 26.7914 148.813C26.9548 148.991 27.1609 149.124 27.4095 149.211C27.6606 149.297 27.9305 149.339 28.2195 149.339C28.5558 149.339 28.8577 149.285 29.1253 149.176C29.3929 149.065 29.6049 148.911 29.7612 148.714C29.9175 148.515 29.9957 148.283 29.9957 148.018C29.9957 147.776 29.9282 147.58 29.7932 147.428C29.6582 147.276 29.4806 147.153 29.2603 147.059C29.0401 146.964 28.8021 146.881 28.5463 146.81L27.6511 146.554C27.0827 146.391 26.6327 146.157 26.3012 145.854C25.9696 145.551 25.8038 145.155 25.8038 144.664C25.8038 144.257 25.914 143.902 26.1342 143.599C26.3568 143.293 26.6552 143.056 27.0294 142.888C27.406 142.718 27.8263 142.632 28.2905 142.632C28.7594 142.632 29.1762 142.716 29.541 142.885C29.9057 143.05 30.1946 143.278 30.4077 143.567C30.6232 143.856 30.7369 144.184 30.7488 144.551H29.8962ZM32.1688 150.007V149.368L34.5702 146.739C34.8521 146.431 35.0841 146.163 35.2665 145.936C35.4489 145.706 35.5838 145.491 35.6715 145.29C35.7615 145.086 35.8065 144.873 35.8065 144.65C35.8065 144.394 35.7449 144.173 35.6217 143.986C35.501 143.799 35.3352 143.654 35.1244 143.552C34.9136 143.451 34.6768 143.4 34.4139 143.4C34.1345 143.4 33.8905 143.458 33.6821 143.574C33.4761 143.687 33.3162 143.847 33.2026 144.053C33.0913 144.259 33.0356 144.501 33.0356 144.778H32.1972C32.1972 144.352 32.2955 143.978 32.4921 143.655C32.6887 143.333 32.9563 143.082 33.2949 142.902C33.636 142.722 34.0184 142.632 34.4423 142.632C34.8686 142.632 35.2464 142.722 35.5756 142.902C35.9047 143.082 36.1629 143.325 36.35 143.631C36.5371 143.936 36.6306 144.276 36.6306 144.65C36.6306 144.918 36.5821 145.179 36.485 145.435C36.3902 145.689 36.2245 145.972 35.9876 146.284C35.7532 146.594 35.4275 146.973 35.0107 147.421L33.3766 149.169V149.226H36.7585V150.007H32.1688ZM40.4992 150.107C40.0823 150.107 39.707 150.024 39.3731 149.858C39.0391 149.692 38.7715 149.465 38.5702 149.176C38.3689 148.887 38.2588 148.558 38.2398 148.188H39.0924C39.1256 148.517 39.2748 148.79 39.54 149.005C39.8076 149.218 40.1273 149.325 40.4992 149.325C40.7976 149.325 41.0628 149.255 41.2949 149.115C41.5293 148.976 41.7129 148.784 41.8455 148.54C41.9805 148.294 42.048 148.015 42.048 147.705C42.048 147.388 41.9781 147.105 41.8384 146.856C41.701 146.605 41.5116 146.407 41.27 146.263C41.0285 146.118 40.7526 146.045 40.4423 146.043C40.2197 146.04 39.9912 146.075 39.7567 146.146C39.5223 146.214 39.3292 146.303 39.1777 146.412L38.3535 146.313L38.794 142.732H42.5737V143.513H39.5329L39.2771 145.659H39.3198C39.469 145.541 39.6561 145.442 39.881 145.364C40.106 145.286 40.3405 145.247 40.5844 145.247C41.0296 145.247 41.4263 145.353 41.7745 145.567C42.125 145.777 42.3997 146.066 42.5986 146.433C42.7999 146.8 42.9006 147.22 42.9006 147.691C42.9006 148.155 42.7964 148.57 42.588 148.934C42.3819 149.297 42.0977 149.583 41.7354 149.794C41.373 150.002 40.961 150.107 40.4992 150.107ZM45.1075 148.018L45.0933 146.98H45.2638L47.651 144.551H48.6883L46.1448 147.123H46.0737L45.1075 148.018ZM44.326 150.007V142.732H45.1643V150.007H44.326ZM47.7931 150.007L45.6617 147.307L46.2585 146.725L48.8588 150.007H47.7931Z" fill="#4F4F4F"/>
<path d="M27.7692 182.923V173.829H28.3518V182.923H27.7692ZM29.7301 176.557C29.6875 176.197 29.5146 175.918 29.2115 175.719C28.9083 175.52 28.5365 175.421 28.096 175.421C27.7739 175.421 27.4921 175.473 27.2506 175.577C27.0114 175.681 26.8243 175.824 26.6893 176.007C26.5567 176.189 26.4903 176.396 26.4903 176.629C26.4903 176.823 26.5365 176.99 26.6289 177.129C26.7236 177.267 26.8444 177.382 26.9912 177.474C27.1381 177.564 27.292 177.639 27.453 177.698C27.6141 177.755 27.7621 177.801 27.8971 177.836L28.636 178.035C28.8254 178.085 29.0362 178.154 29.2683 178.241C29.5028 178.329 29.7266 178.449 29.9397 178.6C30.1552 178.749 30.3328 178.941 30.4726 179.176C30.6123 179.41 30.6822 179.698 30.6822 180.039C30.6822 180.432 30.5791 180.787 30.3731 181.105C30.1694 181.422 29.871 181.674 29.4779 181.861C29.0871 182.048 28.6123 182.142 28.0534 182.142C27.5324 182.142 27.0812 182.058 26.6999 181.89C26.321 181.721 26.0226 181.487 25.8047 181.186C25.5892 180.885 25.4673 180.536 25.4388 180.138H26.3483C26.3719 180.413 26.4643 180.64 26.6253 180.82C26.7887 180.998 26.9948 181.131 27.2435 181.218C27.4945 181.303 27.7645 181.346 28.0534 181.346C28.3897 181.346 28.6916 181.292 28.9592 181.183C29.2269 181.071 29.4388 180.917 29.5951 180.721C29.7514 180.522 29.8296 180.29 29.8296 180.025C29.8296 179.783 29.7621 179.586 29.6271 179.435C29.4921 179.283 29.3145 179.16 29.0942 179.065C28.874 178.971 28.636 178.888 28.3802 178.817L27.485 178.561C26.9166 178.398 26.4667 178.164 26.1351 177.861C25.8036 177.558 25.6378 177.161 25.6378 176.671C25.6378 176.264 25.7479 175.909 25.9681 175.605C26.1908 175.3 26.4892 175.063 26.8633 174.895C27.2399 174.724 27.6603 174.639 28.1244 174.639C28.5934 174.639 29.0102 174.723 29.3749 174.891C29.7396 175.057 30.0285 175.285 30.2417 175.573C30.4572 175.862 30.5708 176.19 30.5827 176.557H29.7301ZM32.0028 182.014V181.374L34.4042 178.746C34.686 178.438 34.9181 178.17 35.1004 177.943C35.2828 177.713 35.4178 177.498 35.5054 177.296C35.5954 177.093 35.6404 176.88 35.6404 176.657C35.6404 176.401 35.5788 176.18 35.4557 175.993C35.3349 175.806 35.1691 175.661 34.9583 175.559C34.7476 175.457 34.5107 175.406 34.2479 175.406C33.9684 175.406 33.7245 175.465 33.5161 175.581C33.31 175.694 33.1502 175.854 33.0365 176.06C32.9252 176.266 32.8695 176.508 32.8695 176.785H32.0312C32.0312 176.359 32.1295 175.984 32.326 175.662C32.5226 175.34 32.7902 175.089 33.1289 174.909C33.4699 174.729 33.8524 174.639 34.2763 174.639C34.7026 174.639 35.0803 174.729 35.4095 174.909C35.7387 175.089 35.9968 175.332 36.1839 175.637C36.371 175.943 36.4645 176.283 36.4645 176.657C36.4645 176.925 36.416 177.186 36.3189 177.442C36.2242 177.695 36.0584 177.978 35.8216 178.291C35.5871 178.601 35.2615 178.98 34.8447 179.428L33.2106 181.176V181.232H36.5924V182.014H32.0028ZM40.4325 182.113C39.8973 182.113 39.4414 181.968 39.0649 181.676C38.6883 181.383 38.4006 180.958 38.2017 180.401C38.0027 179.842 37.9033 179.167 37.9033 178.376C37.9033 177.59 38.0027 176.919 38.2017 176.362C38.403 175.803 38.6919 175.377 39.0684 175.083C39.4474 174.787 39.9021 174.639 40.4325 174.639C40.963 174.639 41.4166 174.787 41.7931 175.083C42.172 175.377 42.461 175.803 42.6599 176.362C42.8612 176.919 42.9618 177.59 42.9618 178.376C42.9618 179.167 42.8624 179.842 42.6634 180.401C42.4645 180.958 42.1768 181.383 41.8002 181.676C41.4237 181.968 40.9678 182.113 40.4325 182.113ZM40.4325 181.332C40.963 181.332 41.3751 181.076 41.6688 180.565C41.9624 180.053 42.1093 179.324 42.1093 178.376C42.1093 177.746 42.0418 177.21 41.9068 176.767C41.7742 176.324 41.5823 175.987 41.3313 175.755C41.0826 175.523 40.783 175.406 40.4325 175.406C39.9068 175.406 39.4959 175.666 39.1999 176.184C38.9038 176.701 38.7558 177.431 38.7558 178.376C38.7558 179.006 38.8221 179.541 38.9548 179.982C39.0874 180.422 39.278 180.758 39.5267 180.987C39.7777 181.217 40.0797 181.332 40.4325 181.332ZM45.1075 180.025L45.0933 178.987H45.2638L47.651 176.557H48.6883L46.1448 179.129H46.0737L45.1075 180.025ZM44.326 182.014V174.739H45.1643V182.014H44.326ZM47.7931 182.014L45.6617 179.314L46.2585 178.732L48.8588 182.014H47.7931Z" fill="#4F4F4F"/>
<path d="M29.342 214.93V205.836H29.9246V214.93H29.342ZM31.3029 208.565C31.2603 208.205 31.0874 207.925 30.7843 207.726C30.4811 207.527 30.1093 207.428 29.6688 207.428C29.3468 207.428 29.0649 207.48 28.8234 207.584C28.5842 207.688 28.3971 207.832 28.2621 208.014C28.1295 208.196 28.0632 208.403 28.0632 208.636C28.0632 208.83 28.1093 208.997 28.2017 209.136C28.2964 209.274 28.4172 209.389 28.564 209.481C28.7109 209.571 28.8648 209.646 29.0259 209.705C29.1869 209.762 29.3349 209.808 29.4699 209.843L30.2088 210.042C30.3983 210.092 30.609 210.161 30.8411 210.248C31.0756 210.336 31.2994 210.456 31.5125 210.607C31.728 210.756 31.9057 210.948 32.0454 211.183C32.1851 211.417 32.255 211.705 32.255 212.046C32.255 212.439 32.152 212.794 31.9459 213.112C31.7422 213.429 31.4438 213.681 31.0507 213.868C30.66 214.055 30.1851 214.149 29.6262 214.149C29.1052 214.149 28.654 214.065 28.2728 213.897C27.8938 213.729 27.5954 213.494 27.3776 213.193C27.162 212.893 27.0401 212.543 27.0117 212.145H27.9211C27.9447 212.42 28.0371 212.647 28.1982 212.827C28.3616 213.005 28.5676 213.138 28.8163 213.225C29.0673 213.311 29.3373 213.353 29.6262 213.353C29.9625 213.353 30.2645 213.299 30.5321 213.19C30.7997 213.078 31.0116 212.924 31.1679 212.728C31.3242 212.529 31.4024 212.297 31.4024 212.032C31.4024 211.79 31.3349 211.594 31.1999 211.442C31.0649 211.29 30.8873 211.167 30.6671 211.073C30.4468 210.978 30.2088 210.895 29.953 210.824L29.0578 210.568C28.4894 210.405 28.0395 210.171 27.7079 209.868C27.3764 209.565 27.2106 209.168 27.2106 208.678C27.2106 208.271 27.3207 207.916 27.541 207.613C27.7636 207.307 28.062 207.07 28.4362 206.902C28.8127 206.732 29.2331 206.646 29.6973 206.646C30.1662 206.646 30.583 206.73 30.9477 206.898C31.3124 207.064 31.6013 207.292 31.8145 207.581C32.03 207.869 32.1437 208.197 32.1555 208.565H31.3029ZM36.1333 206.746V214.021H35.2523V207.669H35.2097L33.4335 208.849V207.954L35.2523 206.746H36.1333ZM40.4992 214.12C40.0823 214.12 39.707 214.038 39.3731 213.872C39.0391 213.706 38.7715 213.479 38.5702 213.19C38.3689 212.901 38.2588 212.572 38.2398 212.202H39.0924C39.1256 212.531 39.2748 212.804 39.54 213.019C39.8076 213.232 40.1273 213.339 40.4992 213.339C40.7976 213.339 41.0628 213.269 41.2949 213.129C41.5293 212.99 41.7129 212.798 41.8455 212.554C41.9805 212.308 42.048 212.029 42.048 211.719C42.048 211.402 41.9781 211.119 41.8384 210.87C41.701 210.619 41.5116 210.421 41.27 210.277C41.0285 210.132 40.7526 210.059 40.4423 210.057C40.2197 210.054 39.9912 210.089 39.7567 210.16C39.5223 210.228 39.3292 210.317 39.1777 210.426L38.3535 210.327L38.794 206.746H42.5737V207.527H39.5329L39.2771 209.673H39.3198C39.469 209.554 39.6561 209.456 39.881 209.378C40.106 209.3 40.3405 209.261 40.5844 209.261C41.0296 209.261 41.4263 209.367 41.7745 209.581C42.125 209.791 42.3997 210.08 42.5986 210.447C42.7999 210.814 42.9006 211.234 42.9006 211.705C42.9006 212.169 42.7964 212.583 42.588 212.948C42.3819 213.311 42.0977 213.597 41.7354 213.808C41.373 214.016 40.961 214.12 40.4992 214.12ZM45.1075 212.032L45.0933 210.994H45.2638L47.651 208.565H48.6883L46.1448 211.136H46.0737L45.1075 212.032ZM44.326 214.021V206.746H45.1643V214.021H44.326ZM47.7931 214.021L45.6617 211.321L46.2585 210.739L48.8588 214.021H47.7931Z" fill="#4F4F4F"/>
<path d="M29.1759 246.937V237.843H29.7585V246.937H29.1759ZM31.1369 240.572C31.0942 240.212 30.9213 239.932 30.6182 239.733C30.3151 239.534 29.9433 239.435 29.5028 239.435C29.1807 239.435 28.8989 239.487 28.6573 239.591C28.4181 239.695 28.231 239.839 28.096 240.021C27.9634 240.203 27.8971 240.411 27.8971 240.643C27.8971 240.837 27.9433 241.004 28.0356 241.144C28.1304 241.281 28.2511 241.396 28.398 241.488C28.5448 241.578 28.6987 241.653 28.8598 241.712C29.0208 241.769 29.1688 241.815 29.3038 241.85L30.0427 242.049C30.2322 242.099 30.443 242.168 30.675 242.255C30.9095 242.343 31.1333 242.463 31.3464 242.614C31.562 242.763 31.7396 242.955 31.8793 243.19C32.019 243.424 32.0889 243.712 32.0889 244.053C32.0889 244.446 31.9859 244.801 31.7798 245.119C31.5762 245.436 31.2778 245.688 30.8846 245.875C30.4939 246.062 30.019 246.156 29.4601 246.156C28.9391 246.156 28.488 246.072 28.1067 245.904C27.7278 245.736 27.4294 245.501 27.2115 245.2C26.996 244.9 26.874 244.55 26.8456 244.152H27.755C27.7787 244.427 27.871 244.654 28.0321 244.834C28.1955 245.012 28.4015 245.145 28.6502 245.232C28.9012 245.318 29.1712 245.36 29.4601 245.36C29.7964 245.36 30.0984 245.306 30.366 245.197C30.6336 245.086 30.8456 244.932 31.0019 244.735C31.1582 244.536 31.2363 244.304 31.2363 244.039C31.2363 243.797 31.1688 243.601 31.0338 243.449C30.8988 243.297 30.7212 243.174 30.501 243.08C30.2807 242.985 30.0427 242.902 29.787 242.831L28.8918 242.575C28.3234 242.412 27.8734 242.178 27.5418 241.875C27.2103 241.572 27.0445 241.176 27.0445 240.685C27.0445 240.278 27.1546 239.923 27.3749 239.62C27.5975 239.314 27.8959 239.077 28.2701 238.909C28.6466 238.739 29.067 238.653 29.5312 238.653C30.0001 238.653 30.4169 238.737 30.7816 238.906C31.1463 239.071 31.4353 239.299 31.6484 239.588C31.8639 239.877 31.9776 240.205 31.9894 240.572H31.1369ZM35.9672 238.753V246.028H35.0862V239.676H35.0436L33.2674 240.856V239.961L35.0862 238.753H35.9672ZM40.4325 246.128C39.8973 246.128 39.4414 245.982 39.0649 245.691C38.6883 245.397 38.4006 244.972 38.2017 244.415C38.0027 243.856 37.9033 243.181 37.9033 242.39C37.9033 241.604 38.0027 240.933 38.2017 240.376C38.403 239.817 38.6919 239.391 39.0684 239.097C39.4474 238.801 39.9021 238.653 40.4325 238.653C40.963 238.653 41.4166 238.801 41.7931 239.097C42.172 239.391 42.461 239.817 42.6599 240.376C42.8612 240.933 42.9618 241.604 42.9618 242.39C42.9618 243.181 42.8624 243.856 42.6634 244.415C42.4645 244.972 42.1768 245.397 41.8002 245.691C41.4237 245.982 40.9678 246.128 40.4325 246.128ZM40.4325 245.346C40.963 245.346 41.3751 245.09 41.6688 244.579C41.9624 244.067 42.1093 243.338 42.1093 242.39C42.1093 241.76 42.0418 241.224 41.9068 240.781C41.7742 240.338 41.5823 240.001 41.3313 239.769C41.0826 239.537 40.783 239.421 40.4325 239.421C39.9068 239.421 39.4959 239.68 39.1999 240.199C38.9038 240.715 38.7558 241.446 38.7558 242.39C38.7558 243.02 38.8221 243.556 38.9548 243.996C39.0874 244.437 39.278 244.772 39.5267 245.001C39.7777 245.231 40.0797 245.346 40.4325 245.346ZM45.1075 244.039L45.0933 243.001H45.2638L47.651 240.572H48.6883L46.1448 243.144H46.0737L45.1075 244.039ZM44.326 246.028V238.753H45.1643V246.028H44.326ZM47.7931 246.028L45.6617 243.328L46.2585 242.746L48.8588 246.028H47.7931Z" fill="#4F4F4F"/>
<path d="M33.9921 278.944V269.85H34.5747V278.944H33.9921ZM35.953 272.578C35.9104 272.218 35.7375 271.939 35.4343 271.74C35.1312 271.541 34.7594 271.442 34.3189 271.442C33.9968 271.442 33.715 271.494 33.4734 271.598C33.2342 271.702 33.0472 271.845 32.9122 272.028C32.7795 272.21 32.7132 272.417 32.7132 272.65C32.7132 272.844 32.7594 273.011 32.8518 273.15C32.9465 273.288 33.0673 273.403 33.2141 273.495C33.3609 273.585 33.5149 273.66 33.6759 273.719C33.837 273.776 33.985 273.822 34.12 273.857L34.8589 274.056C35.0483 274.106 35.2591 274.175 35.4912 274.262C35.7256 274.35 35.9494 274.47 36.1626 274.621C36.3781 274.77 36.5557 274.962 36.6954 275.197C36.8352 275.431 36.905 275.719 36.905 276.06C36.905 276.453 36.802 276.808 36.596 277.126C36.3923 277.443 36.0939 277.695 35.7008 277.882C35.31 278.069 34.8352 278.163 34.2763 278.163C33.7553 278.163 33.3041 278.079 32.9228 277.911C32.5439 277.742 32.2455 277.508 32.0276 277.207C31.8121 276.906 31.6901 276.557 31.6617 276.159H32.5711C32.5948 276.434 32.6872 276.661 32.8482 276.841C33.0116 277.019 33.2177 277.152 33.4663 277.239C33.7174 277.324 33.9873 277.367 34.2763 277.367C34.6126 277.367 34.9145 277.313 35.1821 277.204C35.4497 277.092 35.6617 276.938 35.818 276.742C35.9743 276.543 36.0525 276.311 36.0525 276.046C36.0525 275.804 35.985 275.607 35.85 275.456C35.715 275.304 35.5374 275.181 35.3171 275.086C35.0969 274.992 34.8589 274.909 34.6031 274.838L33.7079 274.582C33.1395 274.419 32.6895 274.185 32.358 273.882C32.0264 273.579 31.8607 273.182 31.8607 272.692C31.8607 272.285 31.9708 271.93 32.191 271.626C32.4136 271.321 32.712 271.084 33.0862 270.916C33.4628 270.745 33.8831 270.66 34.3473 270.66C34.8162 270.66 35.233 270.744 35.5978 270.912C35.9625 271.078 36.2514 271.306 36.4645 271.594C36.6801 271.883 36.7937 272.211 36.8056 272.578H35.953ZM40.4992 278.134C40.0823 278.134 39.707 278.051 39.3731 277.886C39.0391 277.72 38.7715 277.493 38.5702 277.204C38.3689 276.915 38.2588 276.586 38.2398 276.216H39.0924C39.1256 276.545 39.2748 276.818 39.54 277.033C39.8076 277.246 40.1273 277.353 40.4992 277.353C40.7976 277.353 41.0628 277.283 41.2949 277.143C41.5293 277.004 41.7129 276.812 41.8455 276.568C41.9805 276.321 42.048 276.043 42.048 275.733C42.048 275.416 41.9781 275.133 41.8384 274.884C41.701 274.633 41.5116 274.435 41.27 274.291C41.0285 274.146 40.7526 274.073 40.4423 274.07C40.2197 274.068 39.9912 274.102 39.7567 274.173C39.5223 274.242 39.3292 274.331 39.1777 274.44L38.3535 274.34L38.794 270.76H42.5737V271.541H39.5329L39.2771 273.687H39.3198C39.469 273.568 39.6561 273.47 39.881 273.392C40.106 273.314 40.3405 273.275 40.5844 273.275C41.0296 273.275 41.4263 273.381 41.7745 273.594C42.125 273.805 42.3997 274.094 42.5986 274.461C42.7999 274.828 42.9006 275.247 42.9006 275.719C42.9006 276.183 42.7964 276.597 42.588 276.962C42.3819 277.324 42.0977 277.611 41.7354 277.822C41.373 278.03 40.961 278.134 40.4992 278.134ZM45.1075 276.046L45.0933 275.008H45.2638L47.651 272.578H48.6883L46.1448 275.15H46.0737L45.1075 276.046ZM44.326 278.035V270.76H45.1643V278.035H44.326ZM47.7931 278.035L45.6617 275.335L46.2585 274.753L48.8588 278.035H47.7931Z" fill="#4F4F4F"/>
<path d="M33.826 310.951V301.857H34.4086V310.951H33.826ZM35.7869 304.586C35.7443 304.226 35.5714 303.946 35.2683 303.747C34.9651 303.548 34.5933 303.449 34.1528 303.449C33.8307 303.449 33.5489 303.501 33.3074 303.605C33.0682 303.709 32.8811 303.853 32.7461 304.035C32.6135 304.217 32.5472 304.424 32.5472 304.657C32.5472 304.851 32.5933 305.018 32.6857 305.157C32.7804 305.295 32.9012 305.41 33.048 305.502C33.1949 305.592 33.3488 305.667 33.5098 305.726C33.6709 305.783 33.8189 305.829 33.9539 305.864L34.6928 306.063C34.8823 306.113 35.093 306.182 35.3251 306.269C35.5596 306.357 35.7834 306.477 35.9965 306.628C36.212 306.777 36.3896 306.969 36.5294 307.204C36.6691 307.438 36.739 307.726 36.739 308.067C36.739 308.46 36.6359 308.815 36.4299 309.133C36.2262 309.45 35.9278 309.702 35.5347 309.889C35.1439 310.076 34.6691 310.17 34.1102 310.17C33.5892 310.17 33.138 310.086 32.7567 309.918C32.3778 309.75 32.0794 309.515 31.8615 309.214C31.646 308.914 31.5241 308.564 31.4956 308.166H32.4051C32.4287 308.441 32.5211 308.668 32.6821 308.848C32.8456 309.026 33.0516 309.159 33.3003 309.246C33.5513 309.332 33.8213 309.374 34.1102 309.374C34.4465 309.374 34.7484 309.32 35.0161 309.211C35.2837 309.099 35.4956 308.945 35.6519 308.749C35.8082 308.55 35.8864 308.318 35.8864 308.053C35.8864 307.811 35.8189 307.615 35.6839 307.463C35.5489 307.311 35.3713 307.188 35.151 307.094C34.9308 306.999 34.6928 306.916 34.437 306.845L33.5418 306.589C32.9734 306.426 32.5235 306.192 32.1919 305.889C31.8604 305.586 31.6946 305.189 31.6946 304.699C31.6946 304.292 31.8047 303.937 32.025 303.633C32.2476 303.328 32.546 303.091 32.9202 302.923C33.2967 302.753 33.7171 302.667 34.1812 302.667C34.6502 302.667 35.067 302.751 35.4317 302.919C35.7964 303.085 36.0853 303.313 36.2985 303.602C36.514 303.89 36.6277 304.218 36.6395 304.586H35.7869ZM40.4325 310.141C39.8973 310.141 39.4414 309.996 39.0649 309.705C38.6883 309.411 38.4006 308.986 38.2017 308.429C38.0027 307.87 37.9033 307.195 37.9033 306.404C37.9033 305.618 38.0027 304.947 38.2017 304.39C38.403 303.831 38.6919 303.405 39.0684 303.111C39.4474 302.815 39.9021 302.667 40.4325 302.667C40.963 302.667 41.4166 302.815 41.7931 303.111C42.172 303.405 42.461 303.831 42.6599 304.39C42.8612 304.947 42.9618 305.618 42.9618 306.404C42.9618 307.195 42.8624 307.87 42.6634 308.429C42.4645 308.986 42.1768 309.411 41.8002 309.705C41.4237 309.996 40.9678 310.141 40.4325 310.141ZM40.4325 309.36C40.963 309.36 41.3751 309.104 41.6688 308.593C41.9624 308.081 42.1093 307.352 42.1093 306.404C42.1093 305.774 42.0418 305.238 41.9068 304.795C41.7742 304.352 41.5823 304.015 41.3313 303.783C41.0826 303.551 40.7831 303.435 40.4325 303.435C39.9068 303.435 39.4959 303.694 39.1999 304.213C38.9038 304.729 38.7558 305.459 38.7558 306.404C38.7558 307.034 38.8221 307.57 38.9548 308.01C39.0874 308.451 39.278 308.786 39.5267 309.015C39.7777 309.245 40.0797 309.36 40.4325 309.36ZM45.1075 308.053L45.0933 307.015H45.2638L47.651 304.586H48.6883L46.1448 307.157H46.0737L45.1075 308.053ZM44.326 310.042V302.767H45.1643V310.042H44.326ZM47.7931 310.042L45.6617 307.342L46.2585 306.76L48.8588 310.042H47.7931Z" fill="#4F4F4F"/>
<path d="M60 143L94.2319 232.171C96.9705 239.305 106.374 240.856 111.258 234.979L158.885 177.671C163.581 172.021 172.563 173.194 175.65 179.86L207.924 249.554C211.551 257.387 222.732 257.253 226.171 249.335L243.995 208.293C247.274 200.742 257.763 200.166 261.849 207.313L298.808 271.965C302.152 277.814 310.207 278.75 314.803 273.822L331.775 255.626C332.59 254.752 333.482 253.953 334.439 253.238L383 217L431.529 182.519C436.154 179.233 442.598 180.421 445.956 184.994C454.678 196.87 471.072 217 482 217C497.5 217 552.808 186.525 552.808 186.525" stroke="#3068A1" stroke-width="2"/>
<line x1="386.25" y1="323" x2="386.25" y2="216" stroke="#474747" stroke-width="1.5" stroke-dasharray="6 6"/>
<circle cx="386" cy="214" r="6.9" fill="white" stroke="#8BB3DB" stroke-width="1.8"/>
<rect x="333" y="136" width="105" height="50" rx="10" fill="#1E3E5D"/>
<path d="M352.14 167.879V166.283H353.169V167.879H352.14ZM352.14 156.63V155.027H353.169V156.63H352.14ZM352.777 166.71C352.11 166.71 351.508 166.591 350.971 166.353C350.439 166.115 349.998 165.779 349.648 165.345C349.303 164.911 349.076 164.398 348.969 163.805L349.97 163.63C350.124 164.274 350.455 164.785 350.964 165.163C351.477 165.536 352.096 165.723 352.819 165.723C353.552 165.723 354.144 165.546 354.597 165.191C355.05 164.832 355.276 164.363 355.276 163.784C355.276 163.355 355.15 163.012 354.898 162.755C354.646 162.498 354.219 162.279 353.617 162.097L351.377 161.397C350.024 160.972 349.347 160.17 349.347 158.989C349.347 158.438 349.482 157.955 349.753 157.54C350.028 157.12 350.409 156.793 350.894 156.56C351.384 156.327 351.956 156.212 352.609 156.217C353.248 156.217 353.82 156.338 354.324 156.581C354.833 156.819 355.25 157.157 355.577 157.596C355.904 158.035 356.121 158.555 356.228 159.157L355.199 159.353C355.134 158.924 354.982 158.548 354.744 158.226C354.511 157.904 354.21 157.654 353.841 157.477C353.472 157.295 353.062 157.202 352.609 157.197C352.18 157.197 351.797 157.272 351.461 157.421C351.125 157.57 350.859 157.778 350.663 158.044C350.472 158.305 350.376 158.606 350.376 158.947C350.376 159.32 350.509 159.638 350.775 159.899C351.046 160.156 351.473 160.373 352.056 160.55L353.981 161.131C354.793 161.374 355.379 161.7 355.738 162.111C356.097 162.522 356.277 163.07 356.277 163.756C356.277 164.349 356.132 164.867 355.843 165.31C355.554 165.753 355.145 166.099 354.618 166.346C354.095 166.589 353.482 166.71 352.777 166.71ZM359.841 166.5V157.568L357.944 158.709V157.554L359.841 156.42H360.884V166.5H359.841ZM366.608 166.703C366.109 166.703 365.649 166.614 365.229 166.437C364.809 166.26 364.448 166.008 364.144 165.681C363.841 165.35 363.619 164.955 363.479 164.498L364.459 164.204C364.627 164.703 364.903 165.081 365.285 165.338C365.673 165.595 366.109 165.718 366.594 165.709C367.042 165.7 367.427 165.599 367.749 165.408C368.076 165.217 368.326 164.951 368.498 164.61C368.671 164.269 368.757 163.875 368.757 163.427C368.757 162.741 368.557 162.19 368.155 161.775C367.759 161.355 367.234 161.145 366.58 161.145C366.398 161.145 366.207 161.171 366.006 161.222C365.806 161.269 365.619 161.336 365.446 161.425L364.928 160.606L368.848 156.987L369.016 157.407H363.878V156.42H369.702V157.421L366.286 160.683L366.272 160.277C366.972 160.188 367.588 160.268 368.12 160.515C368.652 160.762 369.068 161.14 369.366 161.649C369.67 162.153 369.821 162.746 369.821 163.427C369.821 164.071 369.681 164.64 369.401 165.135C369.126 165.625 368.746 166.01 368.26 166.29C367.775 166.565 367.224 166.703 366.608 166.703ZM371.857 167.963L371.92 167.452C372.107 167.466 372.243 167.429 372.326 167.34C372.41 167.251 372.462 167.132 372.48 166.983C372.499 166.834 372.504 166.673 372.494 166.5H371.857V165.023H373.054V166.78C373.054 167.209 372.945 167.531 372.726 167.746C372.511 167.961 372.221 168.033 371.857 167.963ZM379.394 156.217C380.029 156.217 380.603 156.371 381.116 156.679C381.634 156.982 382.045 157.398 382.348 157.925C382.652 158.448 382.803 159.036 382.803 159.689V163.189C382.803 163.861 382.652 164.463 382.348 164.995C382.045 165.527 381.63 165.947 381.102 166.255C380.58 166.558 379.985 166.71 379.317 166.71C378.743 166.71 378.211 166.584 377.721 166.332C377.236 166.075 376.835 165.723 376.517 165.275L377.301 164.624C377.516 164.955 377.801 165.221 378.155 165.422C378.515 165.623 378.902 165.723 379.317 165.723C379.793 165.723 380.213 165.611 380.577 165.387C380.946 165.158 381.235 164.86 381.445 164.491C381.66 164.118 381.767 163.714 381.767 163.28V161.082L382.019 161.376C381.73 161.838 381.345 162.211 380.864 162.496C380.388 162.781 379.866 162.923 379.296 162.923C378.676 162.923 378.113 162.774 377.609 162.475C377.11 162.176 376.713 161.775 376.419 161.271C376.13 160.767 375.985 160.205 375.985 159.584C375.985 158.963 376.139 158.399 376.447 157.89C376.755 157.377 377.168 156.971 377.686 156.672C378.204 156.369 378.774 156.217 379.394 156.217ZM379.394 157.211C378.956 157.211 378.557 157.318 378.197 157.533C377.838 157.743 377.551 158.028 377.336 158.387C377.126 158.746 377.021 159.145 377.021 159.584C377.021 160.023 377.126 160.422 377.336 160.781C377.546 161.14 377.831 161.427 378.19 161.642C378.55 161.852 378.949 161.957 379.387 161.957C379.826 161.957 380.225 161.852 380.584 161.642C380.948 161.427 381.235 161.14 381.445 160.781C381.66 160.422 381.767 160.023 381.767 159.584C381.767 159.15 381.66 158.753 381.445 158.394C381.235 158.035 380.951 157.748 380.591 157.533C380.232 157.318 379.833 157.211 379.394 157.211ZM387.827 166.703C387.328 166.703 386.868 166.614 386.448 166.437C386.028 166.26 385.666 166.008 385.363 165.681C385.06 165.35 384.838 164.955 384.698 164.498L385.678 164.204C385.846 164.703 386.121 165.081 386.504 165.338C386.891 165.595 387.328 165.718 387.813 165.709C388.261 165.7 388.646 165.599 388.968 165.408C389.295 165.217 389.544 164.951 389.717 164.61C389.89 164.269 389.976 163.875 389.976 163.427C389.976 162.741 389.775 162.19 389.374 161.775C388.977 161.355 388.452 161.145 387.799 161.145C387.617 161.145 387.426 161.171 387.225 161.222C387.024 161.269 386.838 161.336 386.665 161.425L386.147 160.606L390.067 156.987L390.235 157.407H385.097V156.42H390.921V157.421L387.505 160.683L387.491 160.277C388.191 160.188 388.807 160.268 389.339 160.515C389.871 160.762 390.286 161.14 390.585 161.649C390.888 162.153 391.04 162.746 391.04 163.427C391.04 164.071 390.9 164.64 390.62 165.135C390.345 165.625 389.964 166.01 389.479 166.29C388.994 166.565 388.443 166.703 387.827 166.703ZM397.654 166.5V164.547H392.936V163.567L396.31 156.42H397.465L394.091 163.567H397.654V160.627H398.69V163.567H399.789V164.547H398.69V166.5H397.654ZM401.757 166.5V165.303H402.954V166.5H401.757ZM408.765 166.71C408.145 166.71 407.585 166.565 407.085 166.276C406.591 165.987 406.199 165.595 405.909 165.1C405.62 164.601 405.475 164.041 405.475 163.42V159.5C405.475 158.879 405.62 158.322 405.909 157.827C406.199 157.328 406.591 156.933 407.085 156.644C407.585 156.355 408.145 156.21 408.765 156.21C409.386 156.21 409.944 156.355 410.438 156.644C410.938 156.933 411.332 157.328 411.621 157.827C411.911 158.322 412.055 158.879 412.055 159.5V163.42C412.055 164.041 411.911 164.601 411.621 165.1C411.332 165.595 410.938 165.987 410.438 166.276C409.944 166.565 409.386 166.71 408.765 166.71ZM408.765 165.716C409.181 165.716 409.559 165.616 409.899 165.415C410.24 165.21 410.511 164.937 410.711 164.596C410.912 164.255 411.012 163.88 411.012 163.469V159.451C411.012 159.036 410.912 158.658 410.711 158.317C410.511 157.976 410.24 157.706 409.899 157.505C409.559 157.3 409.181 157.197 408.765 157.197C408.35 157.197 407.972 157.3 407.631 157.505C407.291 157.706 407.02 157.976 406.819 158.317C406.619 158.658 406.518 159.036 406.518 159.451V163.469C406.518 163.88 406.619 164.255 406.819 164.596C407.02 164.937 407.291 165.21 407.631 165.415C407.972 165.616 408.35 165.716 408.765 165.716ZM417.67 166.71C417.049 166.71 416.489 166.565 415.99 166.276C415.495 165.987 415.103 165.595 414.814 165.1C414.525 164.601 414.38 164.041 414.38 163.42V159.5C414.38 158.879 414.525 158.322 414.814 157.827C415.103 157.328 415.495 156.933 415.99 156.644C416.489 156.355 417.049 156.21 417.67 156.21C418.291 156.21 418.848 156.355 419.343 156.644C419.842 156.933 420.237 157.328 420.526 157.827C420.815 158.322 420.96 158.879 420.96 159.5V163.42C420.96 164.041 420.815 164.601 420.526 165.1C420.237 165.595 419.842 165.987 419.343 166.276C418.848 166.565 418.291 166.71 417.67 166.71ZM417.67 165.716C418.085 165.716 418.463 165.616 418.804 165.415C419.145 165.21 419.415 164.937 419.616 164.596C419.817 164.255 419.917 163.88 419.917 163.469V159.451C419.917 159.036 419.817 158.658 419.616 158.317C419.415 157.976 419.145 157.706 418.804 157.505C418.463 157.3 418.085 157.197 417.67 157.197C417.255 157.197 416.877 157.3 416.536 157.505C416.195 157.706 415.925 157.976 415.724 158.317C415.523 158.658 415.423 159.036 415.423 159.451V163.469C415.423 163.88 415.523 164.255 415.724 164.596C415.925 164.937 416.195 165.21 416.536 165.415C416.877 165.616 417.255 165.716 417.67 165.716Z" fill="white"/>
<path d="M385.5 206L373.809 185.75H397.191L385.5 206Z" fill="#1E3E5D"/>
<path d="M60 143L96.5 237L104.5 239.308L111 237L163.5 174.116H171.5L190 210.808L208.5 251.308L216 256.808L227 251.308L247 204.308L254 201.308L259.5 204.308L301 273.308L308 277.308L319 270.808L331 255.808L380 218.808L388.5 221.308L395.5 213.308L393.5 208.308L429.5 185.808L438.5 181.308L466.5 208.308L480 215.808L495.5 213.308L534 197.308L552.5 185.808V321.808H60V143Z" fill="url(#paint0_linear_123_173)" fill-opacity="0.19"/>
<defs>
<linearGradient id="paint0_linear_123_173" x1="15.5" y1="158.808" x2="552.779" y2="311" gradientUnits="userSpaceOnUse">
<stop stop-color="#3068A1" stop-opacity="0"/>
<stop offset="1" stop-color="#FCFCFC"/>
</linearGradient>
<clipPath id="clip0_123_173">
<rect width="19.2" height="19.2" fill="white" transform="translate(546 42.9)"/>
</clipPath>
</defs>
</svg>
