<svg width="64" height="64" viewBox="0 0 64 64" fill="none" xmlns="http://www.w3.org/2000/svg">
<path d="M54.8011 21.5714C54.6121 21.5714 54.4232 21.7603 54.4232 21.9493L54.6751 33.5367L21.8014 56.2717L7.94638 35.6779L40.6939 13.1954L51.274 17.4777C51.463 17.5407 51.7149 17.4777 51.7779 17.2887C51.8409 17.0998 51.7779 16.8478 51.5889 16.7848L40.7569 12.4396C40.631 12.3766 40.505 12.3766 40.379 12.5026L7.19152 35.3001C7.00255 35.426 6.93956 35.678 7.06554 35.867L21.3605 57.0907C21.4235 57.1537 21.4865 57.2167 21.6125 57.2797H21.6755C21.7385 57.2797 21.8015 57.2797 21.9274 57.2167L55.3049 34.1042C55.4309 34.0412 55.4939 33.9152 55.4939 33.7892L55.179 22.0129C55.2419 21.7609 55.053 21.572 54.801 21.572L54.8011 21.5714Z" fill="#3068A1"/>
<path d="M55.8073 7.21258C55.6813 7.02362 55.4924 6.96063 55.3034 7.02362C55.1145 7.1496 55.0515 7.33856 55.1145 7.52752C55.1145 7.59051 57.1296 11.6838 55.4924 15.9035C54.6735 18.1076 52.9734 19.9338 50.5173 21.3825C50.0763 20.6896 49.3205 20.1228 48.3761 19.9343C48.1872 19.8713 47.9982 19.8713 47.8092 19.8713C46.298 19.8713 44.9752 21.0051 44.6604 22.5163C44.3454 24.2794 45.4792 25.9172 47.2424 26.2322C47.4313 26.2951 47.6203 26.2951 47.8093 26.2951C49.3205 26.2951 50.6433 25.1614 50.9581 23.6501C51.0841 23.0832 51.0211 22.5793 50.8322 22.0759C53.4772 20.5016 55.3034 18.549 56.2482 16.156C58.0118 11.6844 55.8703 7.40158 55.8073 7.21258ZM50.2028 23.5863C50.0139 24.7201 49.0061 25.5385 47.8097 25.5385C47.6837 25.5385 47.4948 25.5385 47.3688 25.4755C46.0465 25.2235 45.1647 23.9642 45.4167 22.6415C45.6056 21.5077 46.6134 20.6893 47.8098 20.6893C47.9358 20.6893 48.1247 20.6893 48.2507 20.7523C48.9436 20.8783 49.4475 21.2562 49.825 21.7601C49.1321 22.1381 48.4397 22.453 47.6838 22.768C47.4949 22.8309 47.3689 23.0829 47.4319 23.2719C47.4949 23.3978 47.6208 23.5238 47.8098 23.5238H47.9358C48.6916 23.2089 49.447 22.8939 50.1399 22.516C50.2659 22.8934 50.2658 23.2084 50.2028 23.5863Z" fill="#3068A1"/>
<path d="M24.0687 39.7713C23.9427 39.5823 23.6908 39.5194 23.5018 39.6453L20.7938 41.5345L18.5896 38.3226L22.1795 35.8036C22.3685 35.6776 22.4315 35.4257 22.3055 35.2367C22.1795 35.0477 21.9276 34.9847 21.7386 35.1107L17.7713 37.8187C17.5824 37.9447 17.5194 38.1966 17.6454 38.3856L22.9354 46.0682C22.9984 46.1942 23.1243 46.2572 23.2503 46.2572C23.3133 46.2572 23.3763 46.2572 23.5023 46.1942C23.6912 46.0682 23.7542 45.8163 23.6282 45.6273L21.2976 42.1644L24.0056 40.2753C24.1946 40.1488 24.1946 39.8973 24.0687 39.7713Z" fill="#3068A1"/>
<path d="M32.8212 39.6464C32.8842 39.6464 32.9472 39.7094 33.0101 39.7094C33.1361 39.7094 33.2621 39.6464 33.3881 39.5204C33.514 39.3314 33.3881 39.0795 33.1991 39.0165L28.9799 36.8754C29.4208 36.4975 29.7357 35.9306 29.8617 35.3011C29.9877 34.6083 29.8617 33.8529 29.4208 33.286C28.9799 32.7191 28.413 32.2782 27.6577 32.1522C26.9648 32.0262 26.3354 32.1522 25.7685 32.5301C25.7685 32.5301 25.7055 32.5301 25.7055 32.5931L23.7534 33.9784C23.6904 34.0414 23.6274 34.1044 23.5645 34.2303C23.5645 34.3563 23.5645 34.4193 23.6274 34.5453L28.9804 42.2914C29.0434 42.4174 29.1694 42.4804 29.2954 42.4804C29.3584 42.4804 29.4214 42.4804 29.5473 42.4174C29.7363 42.2914 29.7993 42.0394 29.6733 41.8505L27.2173 38.3236L28.2881 37.5047L32.8212 39.6464ZM24.5087 34.2304L26.0829 33.1596C26.5238 32.8446 27.0278 32.7817 27.5312 32.8446C28.0351 32.9076 28.476 33.2226 28.7909 33.6635C29.1059 34.1044 29.1689 34.6083 29.1059 35.1117C29.0429 35.6156 28.7279 36.0566 28.287 36.3715L26.7128 37.4423L24.5087 34.2304Z" fill="#3068A1"/>
<path d="M35.1523 38.1976C35.2153 38.1976 35.2783 38.1976 35.4043 38.1347L39.1201 35.6157C39.3091 35.4897 39.3721 35.2377 39.2461 35.0488C39.1201 34.8598 38.8682 34.7968 38.6792 34.9228L35.3413 37.2529L33.0107 34.0415L35.7187 32.1524C35.9077 32.0264 35.9707 31.7745 35.8447 31.5855C35.7187 31.3965 35.4668 31.3336 35.2778 31.4595L32.5698 33.3487L30.3657 30.1998L33.9555 27.6808C34.1445 27.5548 34.2075 27.3029 34.0815 27.1139C33.9555 26.9249 33.7036 26.8619 33.5146 26.9879L29.5474 29.6959C29.4844 29.7589 29.4214 29.8219 29.3584 29.9479C29.3584 30.0738 29.3584 30.1368 29.4214 30.2628L34.7114 37.9454C34.9004 38.1349 35.0263 38.1979 35.1523 38.1979L35.1523 38.1976Z" fill="#3068A1"/>
<path d="M40.8823 34.2301C40.9453 34.2301 41.0083 34.2301 41.1342 34.1671L44.8501 31.6481C45.0391 31.5222 45.1021 31.2702 44.9761 31.0812C44.8501 30.8923 44.5982 30.8293 44.4092 30.9553L40.9453 33.3484L38.7412 30.1365L41.4492 28.2474C41.6382 28.1214 41.7011 27.8695 41.5752 27.6805C41.4492 27.4915 41.1972 27.4285 41.0083 27.5545L38.3003 29.4436L36.0961 26.2318L39.686 23.7128C39.875 23.5868 39.938 23.3348 39.812 23.1459C39.686 22.9569 39.4341 22.8939 39.2451 23.0199L35.2773 25.7914C35.2144 25.8544 35.1514 25.9174 35.0884 26.0433C35.0884 26.1693 35.0884 26.2323 35.1514 26.3583L40.4414 34.0409C40.6303 34.2303 40.7563 34.2303 40.8823 34.2303L40.8823 34.2301Z" fill="#3068A1"/>
</svg>
