<svg width="294" height="77" viewBox="0 0 294 77" fill="none" xmlns="http://www.w3.org/2000/svg">
<path d="M57.8352 34.2315C57.8352 34.9241 57.2809 35.4913 56.5754 35.4913H53.5151V63.3898C53.5151 64.0824 52.9608 64.6496 52.2553 64.6496L25.4158 64.649C24.7232 64.649 24.1561 64.0824 24.1561 63.3892V35.4907H21.5615C20.8689 35.4907 20.3018 34.9241 20.3018 34.2309C20.3018 33.5384 20.8684 32.9712 21.5615 32.9712H56.576C57.2809 32.9718 57.8352 33.539 57.8352 34.2315Z" fill="#3068A1"/>
<path d="M65.4237 12.15H12.7197C9.88784 12.15 7.58398 14.4539 7.58398 17.2863V42.4923C7.58398 45.3248 9.88784 47.6286 12.7197 47.6286H21.6376V38.0111H21.562C19.4784 38.0111 17.7834 36.3159 17.7834 34.2324C17.7834 32.1489 19.4785 30.4538 21.562 30.4538H25.3917C25.3999 30.4538 25.4075 30.4514 25.4163 30.4514H52.2558C52.264 30.4514 52.2716 30.4538 52.2804 30.4538H56.5806C58.6643 30.4538 60.3593 32.1489 60.3593 34.2324C60.3593 36.3159 58.6641 38.0111 56.5806 38.0111H56.0345V47.6286H65.423C68.2549 47.6286 70.5593 45.3248 70.5593 42.4923V17.2863C70.5593 14.4539 68.2549 12.15 65.423 12.15H65.4237ZM53.8561 21.119C53.6171 21.3586 53.3018 21.484 52.962 21.484C52.6222 21.484 52.3069 21.3586 52.0679 21.119C51.8288 20.8793 51.7028 20.5641 51.7028 20.2248C51.7028 20.0614 51.7403 19.8979 51.8036 19.7461C51.8663 19.595 51.9542 19.4561 52.0679 19.3301C52.1306 19.2797 52.1938 19.2293 52.2688 19.1789C52.3321 19.1286 52.4077 19.0905 52.4833 19.0659C52.5583 19.0278 52.6339 19.0032 52.7224 18.9897C53.1249 18.9024 53.5532 19.0401 53.8556 19.3301C54.0823 19.5686 54.2206 19.8973 54.2206 20.2243C54.2212 20.5647 54.0952 20.8793 53.8561 21.119ZM63.4684 21.4858H57.9237C57.2282 21.4858 56.6639 20.9227 56.6639 20.226C56.6639 19.5299 57.2276 18.9662 57.9237 18.9662H63.4684C64.1639 18.9662 64.7282 19.5293 64.7282 20.226C64.7282 20.9221 64.1639 21.4858 63.4684 21.4858Z" fill="#3068A1"/>
<path d="M210.794 32.6829C210.95 32.5267 210.95 32.2734 210.794 32.1172L208.249 29.5716C208.092 29.4154 207.839 29.4154 207.683 29.5716C207.527 29.7278 207.527 29.9811 207.683 30.1373L209.946 32.4L207.683 34.6628C207.527 34.819 207.527 35.0722 207.683 35.2285C207.839 35.3847 208.092 35.3847 208.249 35.2285L210.794 32.6829ZM96.4719 32.8H210.511V32H96.4719V32.8Z" fill="#D3D3D3"/>
<path d="M96.1892 44.1172C96.033 44.2734 96.033 44.5267 96.1892 44.6829L98.7347 47.2285C98.891 47.3847 99.1442 47.3847 99.3004 47.2285C99.4566 47.0722 99.4566 46.819 99.3004 46.6628L97.0377 44.4L99.3004 42.1373C99.4566 41.9811 99.4566 41.7278 99.3004 41.5716C99.1442 41.4154 98.891 41.4154 98.7347 41.5716L96.1892 44.1172ZM210.511 44L96.472 44V44.8L210.511 44.8V44Z" fill="#D3D3D3"/>
<rect x="229.511" y="6.63196" width="63.536" height="63.536" rx="31.768" fill="#143454"/>
<path d="M273.648 47.767H249.64C248.568 47.767 247.578 48.339 247.041 49.2675C246.505 50.196 246.505 51.3398 247.041 52.2683C247.578 53.1968 248.568 53.7688 249.64 53.7688H273.648C274.72 53.7688 275.711 53.1968 276.247 52.2683C276.783 51.3398 276.783 50.1959 276.247 49.2675C275.711 48.339 274.72 47.767 273.648 47.767Z" fill="white"/>
<path d="M249.64 36.7632H255.642V45.7662H249.64V36.7632Z" fill="white"/>
<path d="M275.985 28.8186L261.98 23.8171V23.8169C261.763 23.7399 261.526 23.7399 261.308 23.8169L247.303 28.8183L247.304 28.8186C247.109 28.8878 246.941 29.0157 246.822 29.1844C246.703 29.3529 246.639 29.5545 246.639 29.7607V33.762C246.639 34.0273 246.745 34.2817 246.932 34.4694C247.12 34.657 247.374 34.7625 247.64 34.7625H275.648C275.914 34.7625 276.168 34.657 276.356 34.4694C276.543 34.2817 276.649 34.0273 276.649 33.762V29.7607C276.649 29.5545 276.585 29.3529 276.466 29.1844C276.347 29.0157 276.179 28.8878 275.984 28.8186H275.985Z" fill="white"/>
<path d="M258.643 36.7632H264.645V45.7662H258.643V36.7632Z" fill="white"/>
<path d="M267.646 36.7632H273.648V45.7662H267.646V36.7632Z" fill="white"/>
</svg>
