<svg width="107" height="20" viewBox="0 0 107 20" fill="none" xmlns="http://www.w3.org/2000/svg">
<g clip-path="url(#clip0_103_935)">
<rect width="15.36" height="15.36" rx="1.92" fill="#3068A1"/>
<g filter="url(#filter0_d_103_935)">
<path d="M-0.233562 15.4423L-0.544178 0.777865L9 4.6037L7 10.1037L5.16892 15.3817L-0.233562 15.4423Z" fill="white"/>
</g>
</g>
<path d="M106.597 14.4792C105.927 14.6105 105.271 14.6663 104.627 14.6466C103.984 14.6269 103.409 14.5022 102.904 14.2723C102.398 14.0425 102.017 13.6814 101.761 13.1889C101.531 12.7489 101.406 12.3024 101.387 11.8493C101.374 11.3897 101.367 10.8709 101.367 10.2931V0.886719H103.435V10.1946C103.435 10.6214 103.439 10.9924 103.445 11.3076C103.458 11.6228 103.527 11.8887 103.652 12.1054C103.888 12.5125 104.263 12.7456 104.775 12.8047C105.294 12.8573 105.901 12.8343 106.597 12.7358V14.4792ZM99.3281 5.49633V3.8416H106.597V5.49633H99.3281Z" fill="black"/>
<path d="M93.2084 14.4789V3.46706C93.2084 3.19784 93.2182 2.9122 93.2379 2.61014C93.2576 2.30152 93.3135 1.99947 93.4054 1.70398C93.5039 1.40193 93.6648 1.12614 93.888 0.876614C94.1572 0.581126 94.4527 0.371001 94.7745 0.24624C95.0962 0.121478 95.4147 0.0492472 95.7299 0.0295479C96.0516 0.00984934 96.3471 0 96.6164 0H97.9559V1.69413H96.7149C96.2289 1.69413 95.8645 1.81561 95.6215 2.05857C95.3852 2.29496 95.267 2.63313 95.267 3.07307V14.4789H93.2084ZM91.4453 5.49608V3.84134H97.9559V5.49608H91.4453Z" fill="black"/>
<path d="M86.2324 2.0981V0.0986328H88.291V2.0981H86.2324ZM86.2324 14.479V3.84148H88.291V14.479H86.2324Z" fill="black"/>
<path d="M71.7523 14.4785L68.502 3.83105L70.5408 3.8409L72.7668 11.1395L75.0125 3.8409H76.7855L79.0312 11.1395L81.2572 3.8409H83.2862L80.0358 14.4785H78.3811L75.899 6.77608L73.4071 14.4785H71.7523Z" fill="black"/>
<path d="M62.3932 14.7646C61.0997 14.7646 60.0457 14.479 59.2315 13.9077C58.4173 13.3364 57.9182 12.532 57.7344 11.4945L59.8422 11.1695C59.9735 11.7211 60.2756 12.1577 60.7484 12.4795C61.2277 12.7947 61.822 12.9523 62.5311 12.9523C63.1746 12.9523 63.677 12.8209 64.0381 12.5583C64.4058 12.2956 64.5897 11.9345 64.5897 11.4748C64.5897 11.2056 64.524 10.9889 64.3927 10.8248C64.2679 10.654 64.002 10.4932 63.5949 10.3421C63.1878 10.1911 62.5672 10.004 61.7333 9.7807C60.8206 9.54431 60.095 9.2915 59.5566 9.02228C59.0247 8.74649 58.6438 8.42802 58.414 8.06687C58.1907 7.69915 58.0791 7.25591 58.0791 6.73717C58.0791 6.09366 58.2498 5.53223 58.5913 5.05289C58.9327 4.57354 59.4121 4.20254 60.0293 3.93988C60.6531 3.67723 61.382 3.5459 62.2159 3.5459C63.0302 3.5459 63.7558 3.67394 64.3927 3.93003C65.0296 4.18612 65.5451 4.55056 65.9391 5.02334C66.3331 5.48955 66.5695 6.03785 66.6483 6.66822L64.5405 7.05236C64.4682 6.54018 64.2285 6.13634 63.8214 5.84086C63.4143 5.54537 62.8857 5.38449 62.2356 5.35822C61.6118 5.33196 61.1062 5.43702 60.7188 5.67341C60.3314 5.90324 60.1377 6.22171 60.1377 6.62882C60.1377 6.86521 60.2099 7.06549 60.3544 7.22965C60.5054 7.39381 60.7943 7.5514 61.2211 7.70243C61.648 7.85346 62.2783 8.03403 63.1123 8.24416C64.0053 8.47398 64.7145 8.73007 65.2398 9.01243C65.7651 9.28822 66.1394 9.61982 66.3626 10.0072C66.5925 10.3881 66.7074 10.851 66.7074 11.396C66.7074 12.4467 66.3232 13.2707 65.555 13.8683C64.7933 14.4658 63.7394 14.7646 62.3932 14.7646Z" fill="black"/>
<path d="M47.9671 19.2072L50.0256 13.6027L50.0552 15.2575L45.416 3.8418H47.5632L51.0303 12.6572H50.3999L53.7094 3.8418H55.7975L49.9271 19.2072H47.9671Z" fill="black"/>
<path d="M37.9291 14.7744C37.1411 14.7744 36.4812 14.63 35.9493 14.3411C35.4174 14.0456 35.0136 13.6582 34.7378 13.1788C34.4686 12.6929 34.334 12.161 34.334 11.5832C34.334 11.0447 34.4292 10.5719 34.6196 10.1648C34.81 9.75771 35.0924 9.41298 35.4667 9.13062C35.841 8.8417 36.3006 8.60859 36.8456 8.4313C37.3184 8.29341 37.8536 8.17193 38.4511 8.06686C39.0487 7.9618 39.6758 7.86331 40.3324 7.77138C40.9956 7.67945 41.6522 7.58752 42.3023 7.49559L41.5537 7.90927C41.5669 7.07534 41.3896 6.4581 41.0219 6.05755C40.6607 5.65043 40.0369 5.44687 39.1504 5.44687C38.5923 5.44687 38.0801 5.5782 37.6139 5.84086C37.1477 6.09694 36.8227 6.52376 36.6388 7.1213L34.7181 6.53033C34.9808 5.6176 35.4798 4.89201 36.2153 4.35357C36.9573 3.81512 37.9422 3.5459 39.1701 3.5459C40.1223 3.5459 40.9496 3.71006 41.6522 4.03838C42.3614 4.36013 42.8802 4.87231 43.2085 5.57492C43.3792 5.92294 43.4843 6.29065 43.5237 6.67807C43.5631 7.06549 43.5828 7.48245 43.5828 7.92897V14.479H41.7606V12.0461L42.1152 12.3613C41.6752 13.1755 41.1138 13.7829 40.4309 14.1835C39.7545 14.5774 38.9206 14.7744 37.9291 14.7744ZM38.2935 13.0902C38.8779 13.0902 39.3803 12.9884 39.8005 12.7848C40.2208 12.5747 40.5589 12.3088 40.815 11.987C41.0711 11.6653 41.2386 11.3304 41.3174 10.9823C41.429 10.6672 41.4914 10.3126 41.5045 9.91859C41.5242 9.5246 41.534 9.20942 41.534 8.97303L42.2038 9.21927C41.5537 9.31776 40.9628 9.40641 40.4309 9.48521C39.899 9.564 39.4164 9.6428 38.983 9.7216C38.5562 9.79383 38.1753 9.88247 37.8404 9.98754C37.5581 10.086 37.3053 10.2042 37.082 10.3421C36.8653 10.48 36.6913 10.6475 36.56 10.8445C36.4352 11.0414 36.3729 11.2811 36.3729 11.5635C36.3729 11.8393 36.4418 12.0954 36.5797 12.3317C36.7176 12.5616 36.9277 12.7454 37.2101 12.8833C37.4924 13.0212 37.8536 13.0902 38.2935 13.0902Z" fill="black"/>
<path d="M21.3594 14.1834V0H27.2199C27.3578 0 27.5351 0.00656613 27.7518 0.0196988C27.9685 0.0262655 28.1687 0.0459646 28.3526 0.0787965C29.1734 0.203558 29.8497 0.476064 30.3816 0.896313C30.9201 1.31656 31.3173 1.84844 31.5734 2.49195C31.8361 3.12889 31.9674 3.83806 31.9674 4.61946C31.9674 5.3943 31.8361 6.10347 31.5734 6.74698C31.3108 7.38392 30.9102 7.91251 30.3718 8.33276C29.8399 8.75301 29.1668 9.02552 28.3526 9.15028C28.1687 9.17654 27.9652 9.19624 27.7419 9.20938C27.5252 9.22251 27.3512 9.22908 27.2199 9.22908H23.7331V14.1834H21.3594ZM23.7331 7.01292H27.1214C27.2527 7.01292 27.4005 7.00635 27.5646 6.99322C27.7288 6.98008 27.8798 6.95382 28.0177 6.91442C28.4117 6.81592 28.7203 6.64191 28.9436 6.39239C29.1734 6.14287 29.3343 5.86051 29.4262 5.54533C29.5247 5.23014 29.5739 4.92152 29.5739 4.61946C29.5739 4.31741 29.5247 4.00879 29.4262 3.6936C29.3343 3.37185 29.1734 3.08621 28.9436 2.83668C28.7203 2.58716 28.4117 2.41315 28.0177 2.31466C27.8798 2.27526 27.7288 2.25227 27.5646 2.24571C27.4005 2.23258 27.2527 2.22601 27.1214 2.22601H23.7331V7.01292Z" fill="#3068A1"/>
<defs>
<filter id="filter0_d_103_935" x="-10.5449" y="-5.22168" width="29.5449" height="34.6641" filterUnits="userSpaceOnUse" color-interpolation-filters="sRGB">
<feFlood flood-opacity="0" result="BackgroundImageFix"/>
<feColorMatrix in="SourceAlpha" type="matrix" values="0 0 0 0 0 0 0 0 0 0 0 0 0 0 0 0 0 0 127 0" result="hardAlpha"/>
<feOffset dy="4"/>
<feGaussianBlur stdDeviation="5"/>
<feComposite in2="hardAlpha" operator="out"/>
<feColorMatrix type="matrix" values="0 0 0 0 0 0 0 0 0 0 0 0 0 0 0 0 0 0 0.48 0"/>
<feBlend mode="normal" in2="BackgroundImageFix" result="effect1_dropShadow_103_935"/>
<feBlend mode="normal" in="SourceGraphic" in2="effect1_dropShadow_103_935" result="shape"/>
</filter>
<clipPath id="clip0_103_935">
<rect width="15.36" height="15.36" rx="1.92" fill="white"/>
</clipPath>
</defs>
</svg>
