<svg width="107" height="20" viewBox="0 0 107 20" fill="none" xmlns="http://www.w3.org/2000/svg">
<g clip-path="url(#clip0_123_429)">
<rect y="0.396637" width="15.36" height="15.36" rx="1.92" fill="#3068A1"/>
<g filter="url(#filter0_d_123_429)">
<path d="M-0.233806 15.8386L-0.544423 1.17416L8.99976 4.99999L6.99976 10.5L5.16868 15.778L-0.233806 15.8386Z" fill="white"/>
</g>
</g>
<path d="M106.598 14.8755C105.928 15.0068 105.271 15.0626 104.628 15.0429C103.984 15.0232 103.41 14.8985 102.904 14.6687C102.399 14.4388 102.018 14.0777 101.762 13.5852C101.532 13.1452 101.407 12.6987 101.387 12.2456C101.374 11.786 101.368 11.2673 101.368 10.6894V1.28304H103.436V10.5909C103.436 11.0177 103.439 11.3887 103.446 11.7039C103.459 12.0191 103.528 12.285 103.653 12.5017C103.889 12.9089 104.264 13.142 104.776 13.2011C105.294 13.2536 105.902 13.2306 106.598 13.1321V14.8755ZM99.3289 5.89266V4.23792H106.598V5.89266H99.3289Z" fill="white"/>
<path d="M93.2101 14.8755V3.86367C93.2101 3.59445 93.22 3.30881 93.2397 3.00676C93.2594 2.69814 93.3152 2.39608 93.4071 2.10059C93.5056 1.79854 93.6665 1.52275 93.8897 1.27323C94.1589 0.97774 94.4544 0.767615 94.7762 0.642854C95.0979 0.518092 95.4164 0.445861 95.7316 0.426162C96.0534 0.406463 96.3488 0.396614 96.6181 0.396614H97.9576V2.09074H96.7166C96.2306 2.09074 95.8662 2.21222 95.6233 2.45518C95.3869 2.69157 95.2687 3.02974 95.2687 3.46969V14.8755H93.2101ZM91.447 5.89269V4.23796H97.9576V5.89269H91.447Z" fill="white"/>
<path d="M86.2336 2.49459V0.495125H88.2922V2.49459H86.2336ZM86.2336 14.8755V4.23797H88.2922V14.8755H86.2336Z" fill="white"/>
<path d="M71.7538 14.8755L68.5034 4.22808L70.5423 4.23793L72.7683 11.5365L75.014 4.23793H76.7869L79.0326 11.5365L81.2586 4.23793H83.2877L80.0373 14.8755H78.3826L75.9005 7.17311L73.4085 14.8755H71.7538Z" fill="white"/>
<path d="M62.3949 15.1612C61.1014 15.1612 60.0475 14.8755 59.2332 14.3043C58.419 13.733 57.9199 12.9286 57.7361 11.8911L59.8439 11.5661C59.9752 12.1176 60.2773 12.5543 60.7501 12.8761C61.2294 13.1912 61.8237 13.3488 62.5328 13.3488C63.1763 13.3488 63.6787 13.2175 64.0398 12.9549C64.4075 12.6922 64.5914 12.331 64.5914 11.8714C64.5914 11.6022 64.5257 11.3855 64.3944 11.2213C64.2697 11.0506 64.0037 10.8897 63.5966 10.7387C63.1895 10.5877 62.569 10.4005 61.735 10.1773C60.8223 9.94088 60.0967 9.68807 59.5583 9.41885C59.0264 9.14306 58.6455 8.82459 58.4157 8.46344C58.1925 8.09572 58.0808 7.65249 58.0808 7.13374C58.0808 6.49024 58.2515 5.92881 58.593 5.44946C58.9345 4.97012 59.4138 4.59911 60.031 4.33646C60.6548 4.0738 61.3837 3.94247 62.2177 3.94247C63.0319 3.94247 63.7575 4.07052 64.3944 4.32661C65.0314 4.5827 65.5468 4.94713 65.9408 5.41991C66.3348 5.88613 66.5712 6.43442 66.65 7.0648L64.5422 7.44893C64.4699 6.93675 64.2303 6.53292 63.8231 6.23743C63.416 5.94194 62.8874 5.78107 62.2374 5.7548C61.6135 5.72853 61.1079 5.8336 60.7205 6.06999C60.3331 6.29981 60.1394 6.61828 60.1394 7.0254C60.1394 7.26179 60.2116 7.46206 60.3561 7.62622C60.5071 7.79038 60.796 7.94798 61.2228 8.09901C61.6497 8.25003 62.28 8.43061 63.114 8.64073C64.007 8.87056 64.7162 9.12665 65.2415 9.409C65.7668 9.68479 66.1411 10.0164 66.3643 10.4038C66.5942 10.7847 66.7091 11.2476 66.7091 11.7926C66.7091 12.8432 66.3249 13.6673 65.5567 14.2649C64.795 14.8624 63.7411 15.1612 62.3949 15.1612Z" fill="white"/>
<path d="M47.9685 19.6034L50.0271 13.999L50.0566 15.6537L45.4175 4.238H47.5647L51.0318 13.0534H50.4014L53.7108 4.238H55.799L49.9286 19.6034H47.9685Z" fill="white"/>
<path d="M37.9306 15.171C37.1426 15.171 36.4827 15.0266 35.9508 14.7376C35.4189 14.4421 35.0151 14.0547 34.7393 13.5754C34.4701 13.0895 34.3354 12.5576 34.3354 11.9797C34.3354 11.4413 34.4307 10.9685 34.6211 10.5614C34.8115 10.1543 35.0939 9.80955 35.4682 9.5272C35.8424 9.23828 36.3021 9.00517 36.8471 8.82788C37.3199 8.68998 37.855 8.5685 38.4526 8.46344C39.0501 8.35838 39.6772 8.25988 40.3339 8.16795C40.9971 8.07602 41.6537 7.98409 42.3038 7.89216L41.5552 8.30585C41.5683 7.47191 41.391 6.85467 41.0233 6.45412C40.6622 6.047 40.0384 5.84345 39.1519 5.84345C38.5938 5.84345 38.0816 5.97477 37.6154 6.23743C37.1492 6.49352 36.8241 6.92034 36.6403 7.51788L34.7196 6.9269C34.9822 6.01417 35.4813 5.28859 36.2167 4.75014C36.9587 4.2117 37.9437 3.94247 39.1716 3.94247C40.1237 3.94247 40.9511 4.10663 41.6537 4.43495C42.3629 4.75671 42.8816 5.26889 43.2099 5.97149C43.3807 6.31951 43.4857 6.68723 43.5251 7.07465C43.5645 7.46206 43.5842 7.87903 43.5842 8.32555V14.8755H41.762V12.4427L42.1166 12.7579C41.6767 13.5721 41.1153 14.1795 40.4324 14.58C39.756 14.974 38.9221 15.171 37.9306 15.171ZM38.295 13.4867C38.8794 13.4867 39.3817 13.385 39.802 13.1814C40.2222 12.9713 40.5604 12.7053 40.8165 12.3836C41.0726 12.0618 41.24 11.7269 41.3188 11.3789C41.4304 11.0637 41.4928 10.7091 41.506 10.3152C41.5257 9.92118 41.5355 9.60599 41.5355 9.3696L42.2053 9.61584C41.5552 9.71434 40.9642 9.80299 40.4324 9.88178C39.9005 9.96058 39.4178 10.0394 38.9845 10.1182C38.5576 10.1904 38.1768 10.279 37.8419 10.3841C37.5596 10.4826 37.3067 10.6008 37.0835 10.7387C36.8668 10.8766 36.6928 11.044 36.5615 11.241C36.4367 11.438 36.3743 11.6777 36.3743 11.96C36.3743 12.2358 36.4433 12.4919 36.5812 12.7283C36.7191 12.9581 36.9292 13.142 37.2115 13.2799C37.4939 13.4178 37.855 13.4867 38.295 13.4867Z" fill="white"/>
<path d="M21.3601 14.5801V0.396637H27.2206C27.3585 0.396637 27.5358 0.403203 27.7525 0.416336C27.9692 0.422902 28.1695 0.442602 28.3533 0.475433C29.1741 0.600195 29.8505 0.8727 30.3823 1.29295C30.9208 1.7132 31.3181 2.24508 31.5741 2.88859C31.8368 3.52553 31.9681 4.2347 31.9681 5.0161C31.9681 5.79093 31.8368 6.50011 31.5741 7.14361C31.3115 7.78055 30.9109 8.30915 30.3725 8.7294C29.8406 9.14965 29.1676 9.42215 28.3533 9.54692C28.1695 9.57318 27.9659 9.59288 27.7426 9.60601C27.526 9.61915 27.3519 9.62571 27.2206 9.62571H23.7339V14.5801H21.3601ZM23.7339 7.40955H27.1221C27.2535 7.40955 27.4012 7.40299 27.5654 7.38985C27.7295 7.37672 27.8805 7.35045 28.0184 7.31106C28.4124 7.21256 28.721 7.03855 28.9443 6.78903C29.1741 6.5395 29.335 6.25715 29.4269 5.94196C29.5254 5.62677 29.5747 5.31815 29.5747 5.0161C29.5747 4.71404 29.5254 4.40542 29.4269 4.09024C29.335 3.76848 29.1741 3.48285 28.9443 3.23332C28.721 2.9838 28.4124 2.80979 28.0184 2.71129C27.8805 2.67189 27.7295 2.64891 27.5654 2.64235C27.4012 2.62921 27.2535 2.62265 27.1221 2.62265H23.7339V7.40955Z" fill="url(#paint0_linear_123_429)"/>
<defs>
<filter id="filter0_d_123_429" x="-10.5444" y="-4.82584" width="29.5442" height="34.6644" filterUnits="userSpaceOnUse" color-interpolation-filters="sRGB">
<feFlood flood-opacity="0" result="BackgroundImageFix"/>
<feColorMatrix in="SourceAlpha" type="matrix" values="0 0 0 0 0 0 0 0 0 0 0 0 0 0 0 0 0 0 127 0" result="hardAlpha"/>
<feOffset dy="4"/>
<feGaussianBlur stdDeviation="5"/>
<feComposite in2="hardAlpha" operator="out"/>
<feColorMatrix type="matrix" values="0 0 0 0 0 0 0 0 0 0 0 0 0 0 0 0 0 0 0.48 0"/>
<feBlend mode="normal" in2="BackgroundImageFix" result="effect1_dropShadow_123_429"/>
<feBlend mode="normal" in="SourceGraphic" in2="effect1_dropShadow_123_429" result="shape"/>
</filter>
<linearGradient id="paint0_linear_123_429" x1="17.8851" y1="2.00839" x2="26.8626" y2="19.5368" gradientUnits="userSpaceOnUse">
<stop stop-color="#8BB3DB"/>
<stop offset="1" stop-color="#406C97"/>
</linearGradient>
<clipPath id="clip0_123_429">
<rect y="0.396637" width="15.36" height="15.36" rx="1.92" fill="white"/>
</clipPath>
</defs>
</svg>
