<svg width="64" height="64" viewBox="0 0 64 64" fill="none" xmlns="http://www.w3.org/2000/svg">
<path d="M10.3513 44.3H53.6476C53.9191 44.3 54.1398 44.0798 54.1398 43.8078V12.3203C54.1398 12.0488 53.9195 11.8281 53.6476 11.8281H10.3513C10.0798 11.8281 9.85913 12.0483 9.85913 12.3203V43.8091C9.85962 44.0806 10.0798 44.3008 10.3513 44.3008V44.3ZM10.8435 12.8113H53.156V43.315H10.8435V12.8113Z" fill="#3068A1"/>
<path d="M57.5838 47.2524H6.41504C6.14355 47.2524 5.92285 47.4727 5.92285 47.7446V51.6806C5.92285 51.9521 6.14306 52.1728 6.41504 52.1728H57.5825C57.854 52.1728 58.0747 51.9526 58.0747 51.6806V47.7446C58.0747 47.4727 57.8545 47.2524 57.583 47.2524H57.5838ZM57.0916 51.1884H6.90785V48.2363H57.0916V51.1884Z" fill="#3068A1"/>
<path d="M49.7126 15.7638H14.2888C14.0173 15.7638 13.7966 15.984 13.7966 16.256V39.8722C13.7966 40.1437 14.0168 40.3644 14.2888 40.3644H49.7126C49.9841 40.3644 50.2048 40.1442 50.2048 39.8722V16.256C50.2048 15.9845 49.9841 15.7638 49.7126 15.7638ZM49.2204 39.38H14.7804V16.7488H49.2204V39.38Z" fill="#3068A1"/>
<path d="M26.0963 36.4275H37.9044C38.1759 36.4275 38.3966 36.2073 38.3966 35.9353V28.0632C38.3966 27.7917 38.1764 27.571 37.9044 27.571H36.4283V24.1276C36.4283 21.6862 34.4414 19.6993 32.0001 19.6993C29.5587 19.6993 27.5718 21.6862 27.5718 24.1276V27.5715H26.0962C25.8247 27.5715 25.604 27.7917 25.604 28.0637V35.9358C25.6045 36.2073 25.8248 36.4275 26.0963 36.4275ZM28.5563 24.1277C28.5563 22.2288 30.1012 20.6838 32.0002 20.6838C33.8992 20.6838 35.4441 22.2287 35.4441 24.1277V27.5716H28.5559L28.5563 24.1277ZM26.5886 28.5555H37.4128V35.4436H26.5886V28.5555Z" fill="#3068A1"/>
</svg>
