<svg width="68" height="68" viewBox="0 0 68 68" fill="none" xmlns="http://www.w3.org/2000/svg">
<rect width="68" height="68" rx="20" fill="#3068A1"/>
<g clip-path="url(#clip0_123_267)">
<path opacity="0.4" d="M44.0863 13H24.2788C17.0606 13 12.9709 17.0897 12.9709 24.3078V44.0965C12.9709 51.3147 17.0606 55.4044 24.2788 55.4044H44.0863C51.3045 55.4044 55.3753 51.3147 55.3753 44.0965V24.3078C55.3753 17.0897 51.3045 13 44.0863 13Z" fill="white"/>
<path d="M24.3535 28.6238C23.3924 28.6238 22.6008 29.4153 22.6008 30.3953V44.9636C22.6008 45.9248 23.3924 46.7163 24.3535 46.7163C25.3336 46.7163 26.1251 45.9248 26.1251 44.9636V30.3953C26.1251 29.4153 25.3336 28.6238 24.3535 28.6238Z" fill="white"/>
<path d="M34.2481 21.6694C33.2869 21.6694 32.4954 22.461 32.4954 23.441V44.9636C32.4954 45.9247 33.2869 46.7163 34.2481 46.7163C35.2281 46.7163 36.0196 45.9247 36.0196 44.9636V23.441C36.0196 22.461 35.2281 21.6694 34.2481 21.6694Z" fill="white"/>
<path d="M44.0106 36.3132C43.0306 36.3132 42.239 37.1048 42.239 38.0848V44.9637C42.239 45.9249 43.0306 46.7164 43.9917 46.7164C44.9717 46.7164 45.7633 45.9249 45.7633 44.9637V38.0848C45.7633 37.1048 44.9717 36.3132 44.0106 36.3132Z" fill="white"/>
</g>
<defs>
<clipPath id="clip0_123_267">
<rect width="44" height="43" fill="white" transform="translate(12 13)"/>
</clipPath>
</defs>
</svg>
