<svg width="48" height="86" viewBox="0 0 48 86" fill="none" xmlns="http://www.w3.org/2000/svg">
<path d="M23.248 61.648C21.52 61.648 19.888 61.312 18.352 60.64C16.816 59.968 15.48 59.016 14.344 57.784C13.224 56.552 12.416 55.096 11.92 53.416L17.512 51.904C17.912 53.28 18.64 54.344 19.696 55.096C20.768 55.832 21.944 56.192 23.224 56.176C24.36 56.176 25.376 55.912 26.272 55.384C27.168 54.856 27.872 54.144 28.384 53.248C28.896 52.336 29.152 51.32 29.152 50.2C29.152 48.488 28.6 47.056 27.496 45.904C26.392 44.752 24.968 44.176 23.224 44.176C22.696 44.176 22.176 44.248 21.664 44.392C21.168 44.536 20.688 44.736 20.224 44.992L17.584 40.432L29.2 30.496L29.704 31.888H13.264V26.44H34.456V31.912L25.12 40.888L25.072 39.184C27.168 39.328 28.952 39.912 30.424 40.936C31.912 41.96 33.048 43.28 33.832 44.896C34.632 46.512 35.032 48.28 35.032 50.2C35.032 52.376 34.496 54.328 33.424 56.056C32.368 57.784 30.944 59.152 29.152 60.16C27.376 61.152 25.408 61.648 23.248 61.648Z" fill="url(#paint0_linear_243_607)"/>
<defs>
<linearGradient id="paint0_linear_243_607" x1="0.827586" y1="17.5" x2="52.0411" y2="74.2193" gradientUnits="userSpaceOnUse">
<stop stop-color="white"/>
<stop offset="0.728109" stop-color="#364F69" stop-opacity="0"/>
</linearGradient>
</defs>
</svg>
