<svg width="217" height="155" viewBox="0 0 217 155" fill="none" xmlns="http://www.w3.org/2000/svg">
<g filter="url(#filter0_d_123_131)">
<g clip-path="url(#clip0_123_131)">
<rect x="5" y="4" width="207" height="145" rx="12" fill="white"/>
<circle cx="181" cy="22" r="2" fill="#D9D9D9"/>
<circle cx="185.5" cy="22" r="2" fill="#D9D9D9"/>
<circle cx="190" cy="22" r="2" fill="#D9D9D9"/>
<path d="M21.186 53.75V51.878H24.93V65H22.86V53.75H21.186ZM27.7489 58.268C27.7489 56.192 28.0969 54.572 28.7929 53.408C29.5009 52.232 30.7129 51.644 32.4289 51.644C34.1449 51.644 35.3509 52.232 36.0469 53.408C36.7549 54.572 37.1089 56.192 37.1089 58.268C37.1089 60.368 36.7549 62.012 36.0469 63.2C35.3509 64.376 34.1449 64.964 32.4289 64.964C30.7129 64.964 29.5009 64.376 28.7929 63.2C28.0969 62.012 27.7489 60.368 27.7489 58.268ZM35.0929 58.268C35.0929 57.296 35.0269 56.474 34.8949 55.802C34.7749 55.13 34.5229 54.584 34.1389 54.164C33.7549 53.732 33.1849 53.516 32.4289 53.516C31.6729 53.516 31.1029 53.732 30.7189 54.164C30.3349 54.584 30.0769 55.13 29.9449 55.802C29.8249 56.474 29.7649 57.296 29.7649 58.268C29.7649 59.276 29.8249 60.122 29.9449 60.806C30.0649 61.49 30.3169 62.042 30.7009 62.462C31.0969 62.882 31.6729 63.092 32.4289 63.092C33.1849 63.092 33.7549 62.882 34.1389 62.462C34.5349 62.042 34.7929 61.49 34.9129 60.806C35.0329 60.122 35.0929 59.276 35.0929 58.268ZM41.8002 62.534L39.6222 67.502H38.2902L39.5682 62.534H41.8002ZM51.7832 53.642H45.7532V57.224C46.0052 56.888 46.3772 56.606 46.8692 56.378C47.3732 56.15 47.9072 56.036 48.4712 56.036C49.4792 56.036 50.2952 56.252 50.9192 56.684C51.5552 57.116 52.0052 57.662 52.2692 58.322C52.5452 58.982 52.6832 59.678 52.6832 60.41C52.6832 61.298 52.5092 62.09 52.1612 62.786C51.8252 63.47 51.3152 64.01 50.6312 64.406C49.9592 64.802 49.1312 65 48.1472 65C46.8392 65 45.7892 64.676 44.9972 64.028C44.2052 63.38 43.7312 62.522 43.5752 61.454H45.5732C45.7052 62.018 45.9992 62.468 46.4552 62.804C46.9112 63.128 47.4812 63.29 48.1652 63.29C49.0172 63.29 49.6532 63.032 50.0732 62.516C50.5052 62 50.7212 61.316 50.7212 60.464C50.7212 59.6 50.5052 58.94 50.0732 58.484C49.6412 58.016 49.0052 57.782 48.1652 57.782C47.5772 57.782 47.0792 57.932 46.6712 58.232C46.2752 58.52 45.9872 58.916 45.8072 59.42H43.8632V51.842H51.7832V53.642ZM55.9533 62.21C57.1053 61.214 58.0113 60.398 58.6713 59.762C59.3433 59.114 59.9013 58.442 60.3453 57.746C60.7893 57.05 61.0113 56.354 61.0113 55.658C61.0113 54.938 60.8373 54.374 60.4893 53.966C60.1533 53.558 59.6193 53.354 58.8873 53.354C58.1793 53.354 57.6273 53.582 57.2313 54.038C56.8473 54.482 56.6433 55.082 56.6193 55.838H54.6393C54.6753 54.47 55.0833 53.426 55.8633 52.706C56.6553 51.974 57.6573 51.608 58.8693 51.608C60.1773 51.608 61.1973 51.968 61.9293 52.688C62.6733 53.408 63.0453 54.368 63.0453 55.568C63.0453 56.432 62.8233 57.266 62.3793 58.07C61.9473 58.862 61.4253 59.576 60.8133 60.212C60.2133 60.836 59.4453 61.562 58.5093 62.39L57.6993 63.11H63.4053V64.82H54.6573V63.326L55.9533 62.21ZM73.6679 53.642H67.6379V57.224C67.8899 56.888 68.2619 56.606 68.7539 56.378C69.2579 56.15 69.7919 56.036 70.3559 56.036C71.3639 56.036 72.1799 56.252 72.8039 56.684C73.4399 57.116 73.8899 57.662 74.1539 58.322C74.4299 58.982 74.5679 59.678 74.5679 60.41C74.5679 61.298 74.3939 62.09 74.0459 62.786C73.7099 63.47 73.1999 64.01 72.5159 64.406C71.8439 64.802 71.0159 65 70.0319 65C68.7239 65 67.6739 64.676 66.8819 64.028C66.0899 63.38 65.6159 62.522 65.4599 61.454H67.4579C67.5899 62.018 67.8839 62.468 68.3399 62.804C68.7959 63.128 69.3659 63.29 70.0499 63.29C70.9019 63.29 71.5379 63.032 71.9579 62.516C72.3899 62 72.6059 61.316 72.6059 60.464C72.6059 59.6 72.3899 58.94 71.9579 58.484C71.5259 58.016 70.8899 57.782 70.0499 57.782C69.4619 57.782 68.9639 57.932 68.5559 58.232C68.1599 58.52 67.8719 58.916 67.6919 59.42H65.7479V51.842H73.6679V53.642Z" fill="#374858"/>
<rect x="84" y="51" width="36" height="14" rx="7" fill="#F5FAFF"/>
<path d="M94.0768 58.384H92.3728V60.112H91.6928V58.384H89.9968V57.768H91.6928V56.032H92.3728V57.768H94.0768V58.384ZM95.0657 55.88V55.216H96.5697V61H95.8337V55.88H95.0657ZM101.508 55.848H98.7002V57.672C98.8229 57.5013 99.0042 57.3627 99.2442 57.256C99.4842 57.144 99.7429 57.088 100.02 57.088C100.463 57.088 100.823 57.1813 101.1 57.368C101.378 57.5493 101.575 57.7867 101.692 58.08C101.815 58.368 101.876 58.6747 101.876 59C101.876 59.384 101.804 59.728 101.66 60.032C101.516 60.336 101.295 60.576 100.996 60.752C100.703 60.928 100.338 61.016 99.9002 61.016C99.3402 61.016 98.8869 60.872 98.5402 60.584C98.1936 60.296 97.9829 59.912 97.9082 59.432H98.6202C98.6896 59.736 98.8362 59.9733 99.0602 60.144C99.2842 60.3147 99.5669 60.4 99.9082 60.4C100.33 60.4 100.647 60.2747 100.86 60.024C101.074 59.768 101.18 59.432 101.18 59.016C101.18 58.6 101.074 58.28 100.86 58.056C100.647 57.8267 100.332 57.712 99.9162 57.712C99.6336 57.712 99.3856 57.7813 99.1722 57.92C98.9642 58.0533 98.8122 58.2373 98.7162 58.472H98.0282V55.208H101.508V55.848ZM103.196 61.048C103.057 61.048 102.94 61 102.844 60.904C102.748 60.808 102.7 60.6907 102.7 60.552C102.7 60.4133 102.748 60.296 102.844 60.2C102.94 60.104 103.057 60.056 103.196 60.056C103.329 60.056 103.441 60.104 103.532 60.2C103.628 60.296 103.676 60.4133 103.676 60.552C103.676 60.6907 103.628 60.808 103.532 60.904C103.441 61 103.329 61.048 103.196 61.048ZM104.435 60.416C105.113 59.872 105.643 59.4267 106.027 59.08C106.411 58.728 106.734 58.3627 106.995 57.984C107.262 57.6 107.395 57.224 107.395 56.856C107.395 56.5093 107.31 56.2373 107.139 56.04C106.974 55.8373 106.705 55.736 106.331 55.736C105.969 55.736 105.686 55.8507 105.483 56.08C105.286 56.304 105.179 56.6053 105.163 56.984H104.459C104.481 56.3867 104.662 55.9253 105.003 55.6C105.345 55.2747 105.785 55.112 106.323 55.112C106.873 55.112 107.307 55.264 107.627 55.568C107.953 55.872 108.115 56.2907 108.115 56.824C108.115 57.2667 107.982 57.6987 107.715 58.12C107.454 58.536 107.155 58.904 106.819 59.224C106.483 59.5387 106.054 59.9067 105.531 60.328H108.283V60.936H104.435V60.416ZM108.965 56.52C108.965 56.1573 109.074 55.8693 109.293 55.656C109.512 55.4373 109.792 55.328 110.133 55.328C110.474 55.328 110.754 55.4373 110.973 55.656C111.192 55.8693 111.301 56.1573 111.301 56.52C111.301 56.888 111.192 57.1813 110.973 57.4C110.754 57.6133 110.474 57.72 110.133 57.72C109.792 57.72 109.512 57.6133 109.293 57.4C109.074 57.1813 108.965 56.888 108.965 56.52ZM113.637 55.416L110.397 61H109.677L112.917 55.416H113.637ZM110.133 55.776C109.952 55.776 109.808 55.84 109.701 55.968C109.6 56.0907 109.549 56.2747 109.549 56.52C109.549 56.7653 109.6 56.952 109.701 57.08C109.808 57.208 109.952 57.272 110.133 57.272C110.314 57.272 110.458 57.208 110.565 57.08C110.672 56.9467 110.725 56.76 110.725 56.52C110.725 56.2747 110.672 56.0907 110.565 55.968C110.458 55.84 110.314 55.776 110.133 55.776ZM112.029 59.896C112.029 59.528 112.138 59.2373 112.357 59.024C112.576 58.8053 112.856 58.696 113.197 58.696C113.538 58.696 113.816 58.8053 114.029 59.024C114.248 59.2373 114.357 59.528 114.357 59.896C114.357 60.2587 114.248 60.5493 114.029 60.768C113.816 60.9867 113.538 61.096 113.197 61.096C112.856 61.096 112.576 60.9893 112.357 60.776C112.138 60.5573 112.029 60.264 112.029 59.896ZM113.189 59.152C113.008 59.152 112.864 59.216 112.757 59.344C112.65 59.4667 112.597 59.6507 112.597 59.896C112.597 60.136 112.65 60.32 112.757 60.448C112.864 60.5707 113.008 60.632 113.189 60.632C113.37 60.632 113.514 60.5707 113.621 60.448C113.728 60.32 113.781 60.136 113.781 59.896C113.781 59.6507 113.728 59.4667 113.621 59.344C113.514 59.216 113.37 59.152 113.189 59.152Z" fill="#3068A1"/>
<rect x="20" y="137" width="32" height="6" rx="3" transform="rotate(-90 20 137)" fill="#3068A1" fill-opacity="0.15"/>
<rect x="33" y="137" width="37" height="6" rx="3" transform="rotate(-90 33 137)" fill="#3068A1" fill-opacity="0.24"/>
<rect x="46" y="137" width="48" height="6" rx="3" transform="rotate(-90 46 137)" fill="#3068A1" fill-opacity="0.45"/>
<rect x="59" y="137" width="30" height="6" rx="3" transform="rotate(-90 59 137)" fill="#3068A1" fill-opacity="0.49"/>
<rect x="72" y="137" width="40" height="6" rx="3" transform="rotate(-90 72 137)" fill="#3068A1" fill-opacity="0.6"/>
<rect x="85" y="137" width="22" height="6" rx="3" transform="rotate(-90 85 137)" fill="#3068A1" fill-opacity="0.8"/>
<rect x="98" y="137" width="32" height="6" rx="3" transform="rotate(-90 98 137)" fill="#3068A1" fill-opacity="0.9"/>
<g filter="url(#filter1_d_123_131)">
<rect x="20" y="14" width="15" height="15" rx="3" fill="white" shape-rendering="crispEdges"/>
<path d="M27.5 21.5C28.7431 21.5 29.75 20.4931 29.75 19.25C29.75 18.0069 28.7431 17 27.5 17C26.2569 17 25.25 18.0069 25.25 19.25C25.25 20.4931 26.2569 21.5 27.5 21.5ZM27.5 22.625C25.9981 22.625 23 23.3787 23 24.875V26H32V24.875C32 23.3787 29.0019 22.625 27.5 22.625Z" fill="#143454"/>
</g>
<path d="M45.566 17.333V18.147H43.476V25H42.475V18.147H40.374V17.333H45.566ZM49.4272 25.099C48.8625 25.099 48.3492 24.9707 47.8872 24.714C47.4325 24.4573 47.0732 24.0943 46.8092 23.625C46.5525 23.1483 46.4242 22.5983 46.4242 21.975C46.4242 21.359 46.5562 20.8163 46.8202 20.347C47.0915 19.8703 47.4582 19.5073 47.9202 19.258C48.3822 19.0013 48.8992 18.873 49.4712 18.873C50.0432 18.873 50.5602 19.0013 51.0222 19.258C51.4842 19.5073 51.8472 19.8667 52.1112 20.336C52.3825 20.8053 52.5182 21.3517 52.5182 21.975C52.5182 22.5983 52.3788 23.1483 52.1002 23.625C51.8288 24.0943 51.4585 24.4573 50.9892 24.714C50.5198 24.9707 49.9992 25.099 49.4272 25.099ZM49.4272 24.219C49.7865 24.219 50.1238 24.1347 50.4392 23.966C50.7545 23.7973 51.0075 23.5443 51.1982 23.207C51.3962 22.8697 51.4952 22.459 51.4952 21.975C51.4952 21.491 51.3998 21.0803 51.2092 20.743C51.0185 20.4057 50.7692 20.1563 50.4612 19.995C50.1532 19.8263 49.8195 19.742 49.4602 19.742C49.0935 19.742 48.7562 19.8263 48.4482 19.995C48.1475 20.1563 47.9055 20.4057 47.7222 20.743C47.5388 21.0803 47.4472 21.491 47.4472 21.975C47.4472 22.4663 47.5352 22.8807 47.7112 23.218C47.8945 23.5553 48.1365 23.8083 48.4372 23.977C48.7378 24.1383 49.0678 24.219 49.4272 24.219ZM55.0553 19.797V23.35C55.0553 23.6433 55.1176 23.8523 55.2423 23.977C55.367 24.0943 55.5833 24.153 55.8913 24.153H56.6283V25H55.7263C55.169 25 54.751 24.8717 54.4723 24.615C54.1936 24.3583 54.0543 23.9367 54.0543 23.35V19.797H53.2733V18.972H54.0543V17.454H55.0553V18.972H56.6283V19.797H55.0553ZM57.4671 21.964C57.4671 21.348 57.5918 20.809 57.8411 20.347C58.0905 19.8777 58.4315 19.5147 58.8641 19.258C59.3041 19.0013 59.7918 18.873 60.3271 18.873C60.8551 18.873 61.3135 18.9867 61.7021 19.214C62.0908 19.4413 62.3805 19.7273 62.5711 20.072V18.972H63.5831V25H62.5711V23.878C62.3731 24.23 62.0761 24.5233 61.6801 24.758C61.2915 24.9853 60.8368 25.099 60.3161 25.099C59.7808 25.099 59.2968 24.967 58.8641 24.703C58.4315 24.439 58.0905 24.0687 57.8411 23.592C57.5918 23.1153 57.4671 22.5727 57.4671 21.964ZM62.5711 21.975C62.5711 21.5203 62.4795 21.1243 62.2961 20.787C62.1128 20.4497 61.8635 20.193 61.5481 20.017C61.2401 19.8337 60.8991 19.742 60.5251 19.742C60.1511 19.742 59.8101 19.83 59.5021 20.006C59.1941 20.182 58.9485 20.4387 58.7651 20.776C58.5818 21.1133 58.4901 21.5093 58.4901 21.964C58.4901 22.426 58.5818 22.8293 58.7651 23.174C58.9485 23.5113 59.1941 23.7717 59.5021 23.955C59.8101 24.131 60.1511 24.219 60.5251 24.219C60.8991 24.219 61.2401 24.131 61.5481 23.955C61.8635 23.7717 62.1128 23.5113 62.2961 23.174C62.4795 22.8293 62.5711 22.4297 62.5711 21.975ZM66.2757 16.86V25H65.2747V16.86H66.2757ZM76.0404 19.577C76.0404 20.215 75.8204 20.7467 75.3804 21.172C74.9477 21.59 74.284 21.799 73.3894 21.799H71.9154V25H70.9144V17.333H73.3894C74.2547 17.333 74.911 17.542 75.3584 17.96C75.813 18.378 76.0404 18.917 76.0404 19.577ZM73.3894 20.974C73.9467 20.974 74.3574 20.853 74.6214 20.611C74.8854 20.369 75.0174 20.0243 75.0174 19.577C75.0174 18.631 74.4747 18.158 73.3894 18.158H71.9154V20.974H73.3894ZM78.2855 19.951C78.4615 19.6063 78.7108 19.3387 79.0335 19.148C79.3635 18.9573 79.7632 18.862 80.2325 18.862V19.896H79.9685C78.8465 19.896 78.2855 20.5047 78.2855 21.722V25H77.2845V18.972H78.2855V19.951ZM84.017 25.099C83.4523 25.099 82.939 24.9707 82.477 24.714C82.0223 24.4573 81.663 24.0943 81.399 23.625C81.1423 23.1483 81.014 22.5983 81.014 21.975C81.014 21.359 81.146 20.8163 81.41 20.347C81.6813 19.8703 82.048 19.5073 82.51 19.258C82.972 19.0013 83.489 18.873 84.061 18.873C84.633 18.873 85.15 19.0013 85.612 19.258C86.074 19.5073 86.437 19.8667 86.701 20.336C86.9723 20.8053 87.108 21.3517 87.108 21.975C87.108 22.5983 86.9687 23.1483 86.69 23.625C86.4187 24.0943 86.0483 24.4573 85.579 24.714C85.1097 24.9707 84.589 25.099 84.017 25.099ZM84.017 24.219C84.3763 24.219 84.7137 24.1347 85.029 23.966C85.3443 23.7973 85.5973 23.5443 85.788 23.207C85.986 22.8697 86.085 22.459 86.085 21.975C86.085 21.491 85.9897 21.0803 85.799 20.743C85.6083 20.4057 85.359 20.1563 85.051 19.995C84.743 19.8263 84.4093 19.742 84.05 19.742C83.6833 19.742 83.346 19.8263 83.038 19.995C82.7373 20.1563 82.4953 20.4057 82.312 20.743C82.1287 21.0803 82.037 21.491 82.037 21.975C82.037 22.4663 82.125 22.8807 82.301 23.218C82.4843 23.5553 82.7263 23.8083 83.027 23.977C83.3277 24.1383 83.6577 24.219 84.017 24.219ZM90.8771 19.797H89.6121V25H88.6111V19.797H87.8301V18.972H88.6111V18.543C88.6111 17.8683 88.7835 17.377 89.1281 17.069C89.4801 16.7537 90.0411 16.596 90.8111 16.596V17.432C90.3711 17.432 90.0595 17.52 89.8761 17.696C89.7001 17.8647 89.6121 18.147 89.6121 18.543V18.972H90.8771V19.797ZM92.5613 17.993C92.3706 17.993 92.2093 17.927 92.0773 17.795C91.9453 17.663 91.8793 17.5017 91.8793 17.311C91.8793 17.1203 91.9453 16.959 92.0773 16.827C92.2093 16.695 92.3706 16.629 92.5613 16.629C92.7446 16.629 92.8986 16.695 93.0233 16.827C93.1553 16.959 93.2213 17.1203 93.2213 17.311C93.2213 17.5017 93.1553 17.663 93.0233 17.795C92.8986 17.927 92.7446 17.993 92.5613 17.993ZM93.0453 18.972V25H92.0443V18.972H93.0453ZM95.9723 19.797V23.35C95.9723 23.6433 96.0346 23.8523 96.1593 23.977C96.284 24.0943 96.5003 24.153 96.8083 24.153H97.5453V25H96.6433C96.086 25 95.668 24.8717 95.3893 24.615C95.1106 24.3583 94.9713 23.9367 94.9713 23.35V19.797H94.1903V18.972H94.9713V17.454H95.9723V18.972H97.5453V19.797H95.9723Z" fill="#969696"/>
<path d="M121.344 102.424V108H120.616V102.424H121.344ZM124.721 103.536C125.254 103.536 125.686 103.699 126.017 104.024C126.347 104.344 126.513 104.808 126.513 105.416V108H125.793V105.52C125.793 105.083 125.683 104.749 125.465 104.52C125.246 104.285 124.947 104.168 124.569 104.168C124.185 104.168 123.878 104.288 123.649 104.528C123.425 104.768 123.313 105.117 123.313 105.576V108H122.585V103.616H123.313V104.24C123.457 104.016 123.651 103.843 123.897 103.72C124.147 103.597 124.422 103.536 124.721 103.536ZM127.43 105.8C127.43 105.347 127.521 104.952 127.702 104.616C127.883 104.275 128.134 104.011 128.454 103.824C128.779 103.637 129.15 103.544 129.566 103.544C130.105 103.544 130.547 103.675 130.894 103.936C131.246 104.197 131.478 104.56 131.59 105.024H130.806C130.731 104.757 130.585 104.547 130.366 104.392C130.153 104.237 129.886 104.16 129.566 104.16C129.15 104.16 128.814 104.304 128.558 104.592C128.302 104.875 128.174 105.277 128.174 105.8C128.174 106.328 128.302 106.736 128.558 107.024C128.814 107.312 129.15 107.456 129.566 107.456C129.886 107.456 130.153 107.381 130.366 107.232C130.579 107.083 130.726 106.869 130.806 106.592H131.59C131.473 107.04 131.238 107.4 130.886 107.672C130.534 107.939 130.094 108.072 129.566 108.072C129.15 108.072 128.779 107.979 128.454 107.792C128.134 107.605 127.883 107.341 127.702 107C127.521 106.659 127.43 106.259 127.43 105.8ZM133.289 104.328C133.417 104.077 133.599 103.883 133.833 103.744C134.073 103.605 134.364 103.536 134.705 103.536V104.288H134.513C133.697 104.288 133.289 104.731 133.289 105.616V108H132.561V103.616H133.289V104.328ZM139.546 105.64C139.546 105.779 139.538 105.925 139.522 106.08H136.018C136.044 106.512 136.191 106.851 136.458 107.096C136.73 107.336 137.058 107.456 137.442 107.456C137.756 107.456 138.018 107.384 138.226 107.24C138.439 107.091 138.588 106.893 138.674 106.648H139.458C139.34 107.069 139.106 107.413 138.754 107.68C138.402 107.941 137.964 108.072 137.442 108.072C137.026 108.072 136.652 107.979 136.322 107.792C135.996 107.605 135.74 107.341 135.554 107C135.367 106.653 135.274 106.253 135.274 105.8C135.274 105.347 135.364 104.949 135.546 104.608C135.727 104.267 135.98 104.005 136.306 103.824C136.636 103.637 137.015 103.544 137.442 103.544C137.858 103.544 138.226 103.635 138.546 103.816C138.866 103.997 139.111 104.248 139.282 104.568C139.458 104.883 139.546 105.24 139.546 105.64ZM138.794 105.488C138.794 105.211 138.732 104.973 138.61 104.776C138.487 104.573 138.319 104.421 138.106 104.32C137.898 104.213 137.666 104.16 137.41 104.16C137.042 104.16 136.727 104.277 136.466 104.512C136.21 104.747 136.063 105.072 136.026 105.488H138.794ZM140.235 105.792C140.235 105.344 140.325 104.952 140.507 104.616C140.688 104.275 140.936 104.011 141.251 103.824C141.571 103.637 141.925 103.544 142.315 103.544C142.699 103.544 143.032 103.627 143.315 103.792C143.597 103.957 143.808 104.165 143.947 104.416V103.616H144.683V108H143.947V107.184C143.803 107.44 143.587 107.653 143.299 107.824C143.016 107.989 142.685 108.072 142.307 108.072C141.917 108.072 141.565 107.976 141.251 107.784C140.936 107.592 140.688 107.323 140.507 106.976C140.325 106.629 140.235 106.235 140.235 105.792ZM143.947 105.8C143.947 105.469 143.88 105.181 143.747 104.936C143.613 104.691 143.432 104.504 143.203 104.376C142.979 104.243 142.731 104.176 142.459 104.176C142.187 104.176 141.939 104.24 141.715 104.368C141.491 104.496 141.312 104.683 141.179 104.928C141.045 105.173 140.979 105.461 140.979 105.792C140.979 106.128 141.045 106.421 141.179 106.672C141.312 106.917 141.491 107.107 141.715 107.24C141.939 107.368 142.187 107.432 142.459 107.432C142.731 107.432 142.979 107.368 143.203 107.24C143.432 107.107 143.613 106.917 143.747 106.672C143.88 106.421 143.947 106.131 143.947 105.8ZM147.465 108.072C147.129 108.072 146.828 108.016 146.561 107.904C146.294 107.787 146.084 107.627 145.929 107.424C145.774 107.216 145.689 106.979 145.673 106.712H146.425C146.446 106.931 146.548 107.109 146.729 107.248C146.916 107.387 147.158 107.456 147.457 107.456C147.734 107.456 147.953 107.395 148.113 107.272C148.273 107.149 148.353 106.995 148.353 106.808C148.353 106.616 148.268 106.475 148.097 106.384C147.926 106.288 147.662 106.195 147.305 106.104C146.98 106.019 146.713 105.933 146.505 105.848C146.302 105.757 146.126 105.627 145.977 105.456C145.833 105.28 145.761 105.051 145.761 104.768C145.761 104.544 145.828 104.339 145.961 104.152C146.094 103.965 146.284 103.819 146.529 103.712C146.774 103.6 147.054 103.544 147.369 103.544C147.854 103.544 148.246 103.667 148.545 103.912C148.844 104.157 149.004 104.493 149.025 104.92H148.297C148.281 104.691 148.188 104.507 148.017 104.368C147.852 104.229 147.628 104.16 147.345 104.16C147.084 104.16 146.876 104.216 146.721 104.328C146.566 104.44 146.489 104.587 146.489 104.768C146.489 104.912 146.534 105.032 146.625 105.128C146.721 105.219 146.838 105.293 146.977 105.352C147.121 105.405 147.318 105.467 147.569 105.536C147.884 105.621 148.14 105.707 148.337 105.792C148.534 105.872 148.702 105.995 148.841 106.16C148.985 106.325 149.06 106.541 149.065 106.808C149.065 107.048 148.998 107.264 148.865 107.456C148.732 107.648 148.542 107.8 148.297 107.912C148.057 108.019 147.78 108.072 147.465 108.072ZM154.093 105.64C154.093 105.779 154.085 105.925 154.069 106.08H150.565C150.591 106.512 150.738 106.851 151.005 107.096C151.277 107.336 151.605 107.456 151.989 107.456C152.303 107.456 152.565 107.384 152.773 107.24C152.986 107.091 153.135 106.893 153.221 106.648H154.005C153.887 107.069 153.653 107.413 153.301 107.68C152.949 107.941 152.511 108.072 151.989 108.072C151.573 108.072 151.199 107.979 150.869 107.792C150.543 107.605 150.287 107.341 150.101 107C149.914 106.653 149.821 106.253 149.821 105.8C149.821 105.347 149.911 104.949 150.093 104.608C150.274 104.267 150.527 104.005 150.853 103.824C151.183 103.637 151.562 103.544 151.989 103.544C152.405 103.544 152.773 103.635 153.093 103.816C153.413 103.997 153.658 104.248 153.829 104.568C154.005 104.883 154.093 105.24 154.093 105.64ZM153.341 105.488C153.341 105.211 153.279 104.973 153.157 104.776C153.034 104.573 152.866 104.421 152.653 104.32C152.445 104.213 152.213 104.16 151.957 104.16C151.589 104.16 151.274 104.277 151.013 104.512C150.757 104.747 150.61 105.072 150.573 105.488H153.341ZM157.562 102.904C157.424 102.904 157.306 102.856 157.21 102.76C157.114 102.664 157.066 102.547 157.066 102.408C157.066 102.269 157.114 102.152 157.21 102.056C157.306 101.96 157.424 101.912 157.562 101.912C157.696 101.912 157.808 101.96 157.898 102.056C157.994 102.152 158.042 102.269 158.042 102.408C158.042 102.547 157.994 102.664 157.898 102.76C157.808 102.856 157.696 102.904 157.562 102.904ZM157.914 103.616V108H157.186V103.616H157.914ZM161.291 103.536C161.824 103.536 162.256 103.699 162.587 104.024C162.918 104.344 163.083 104.808 163.083 105.416V108H162.363V105.52C162.363 105.083 162.254 104.749 162.035 104.52C161.816 104.285 161.518 104.168 161.139 104.168C160.755 104.168 160.448 104.288 160.219 104.528C159.995 104.768 159.883 105.117 159.883 105.576V108H159.155V103.616H159.883V104.24C160.027 104.016 160.222 103.843 160.467 103.72C160.718 103.597 160.992 103.536 161.291 103.536ZM167.133 104.424C167.277 104.173 167.49 103.965 167.773 103.8C168.061 103.629 168.394 103.544 168.773 103.544C169.162 103.544 169.514 103.637 169.829 103.824C170.149 104.011 170.4 104.275 170.581 104.616C170.762 104.952 170.853 105.344 170.853 105.792C170.853 106.235 170.762 106.629 170.581 106.976C170.4 107.323 170.149 107.592 169.829 107.784C169.514 107.976 169.162 108.072 168.773 108.072C168.4 108.072 168.069 107.989 167.781 107.824C167.498 107.653 167.282 107.443 167.133 107.192V110.08H166.405V103.616H167.133V104.424ZM170.109 105.792C170.109 105.461 170.042 105.173 169.909 104.928C169.776 104.683 169.594 104.496 169.365 104.368C169.141 104.24 168.893 104.176 168.621 104.176C168.354 104.176 168.106 104.243 167.877 104.376C167.653 104.504 167.472 104.693 167.333 104.944C167.2 105.189 167.133 105.475 167.133 105.8C167.133 106.131 167.2 106.421 167.333 106.672C167.472 106.917 167.653 107.107 167.877 107.24C168.106 107.368 168.354 107.432 168.621 107.432C168.893 107.432 169.141 107.368 169.365 107.24C169.594 107.107 169.776 106.917 169.909 106.672C170.042 106.421 170.109 106.128 170.109 105.792ZM172.539 104.328C172.667 104.077 172.849 103.883 173.083 103.744C173.323 103.605 173.614 103.536 173.955 103.536V104.288H173.763C172.947 104.288 172.539 104.731 172.539 105.616V108H171.811V103.616H172.539V104.328ZM176.708 108.072C176.297 108.072 175.924 107.979 175.588 107.792C175.257 107.605 174.996 107.341 174.804 107C174.617 106.653 174.524 106.253 174.524 105.8C174.524 105.352 174.62 104.957 174.812 104.616C175.009 104.269 175.276 104.005 175.612 103.824C175.948 103.637 176.324 103.544 176.74 103.544C177.156 103.544 177.532 103.637 177.868 103.824C178.204 104.005 178.468 104.267 178.66 104.608C178.857 104.949 178.956 105.347 178.956 105.8C178.956 106.253 178.854 106.653 178.652 107C178.454 107.341 178.185 107.605 177.844 107.792C177.502 107.979 177.124 108.072 176.708 108.072ZM176.708 107.432C176.969 107.432 177.214 107.371 177.444 107.248C177.673 107.125 177.857 106.941 177.996 106.696C178.14 106.451 178.212 106.152 178.212 105.8C178.212 105.448 178.142 105.149 178.004 104.904C177.865 104.659 177.684 104.477 177.46 104.36C177.236 104.237 176.993 104.176 176.732 104.176C176.465 104.176 176.22 104.237 175.996 104.36C175.777 104.477 175.601 104.659 175.468 104.904C175.334 105.149 175.268 105.448 175.268 105.8C175.268 106.157 175.332 106.459 175.46 106.704C175.593 106.949 175.769 107.133 175.988 107.256C176.206 107.373 176.446 107.432 176.708 107.432ZM181.697 104.216H180.777V108H180.049V104.216H179.481V103.616H180.049V103.304C180.049 102.813 180.174 102.456 180.425 102.232C180.681 102.003 181.089 101.888 181.649 101.888V102.496C181.329 102.496 181.102 102.56 180.969 102.688C180.841 102.811 180.777 103.016 180.777 103.304V103.616H181.697V104.216ZM182.922 102.904C182.783 102.904 182.666 102.856 182.57 102.76C182.474 102.664 182.426 102.547 182.426 102.408C182.426 102.269 182.474 102.152 182.57 102.056C182.666 101.96 182.783 101.912 182.922 101.912C183.055 101.912 183.167 101.96 183.258 102.056C183.354 102.152 183.402 102.269 183.402 102.408C183.402 102.547 183.354 102.664 183.258 102.76C183.167 102.856 183.055 102.904 182.922 102.904ZM183.274 103.616V108H182.546V103.616H183.274ZM185.402 104.216V106.8C185.402 107.013 185.448 107.165 185.538 107.256C185.629 107.341 185.786 107.384 186.01 107.384H186.546V108H185.89C185.485 108 185.181 107.907 184.978 107.72C184.776 107.533 184.674 107.227 184.674 106.8V104.216H184.106V103.616H184.674V102.512H185.402V103.616H186.546V104.216H185.402ZM124.504 115.616V120H123.776V119.352C123.637 119.576 123.443 119.752 123.192 119.88C122.947 120.003 122.675 120.064 122.376 120.064C122.035 120.064 121.728 119.995 121.456 119.856C121.184 119.712 120.968 119.499 120.808 119.216C120.653 118.933 120.576 118.589 120.576 118.184V115.616H121.296V118.088C121.296 118.52 121.405 118.853 121.624 119.088C121.843 119.317 122.141 119.432 122.52 119.432C122.909 119.432 123.216 119.312 123.44 119.072C123.664 118.832 123.776 118.483 123.776 118.024V115.616H124.504ZM126.461 116.424C126.605 116.173 126.819 115.965 127.101 115.8C127.389 115.629 127.723 115.544 128.101 115.544C128.491 115.544 128.843 115.637 129.157 115.824C129.477 116.011 129.728 116.275 129.909 116.616C130.091 116.952 130.181 117.344 130.181 117.792C130.181 118.235 130.091 118.629 129.909 118.976C129.728 119.323 129.477 119.592 129.157 119.784C128.843 119.976 128.491 120.072 128.101 120.072C127.728 120.072 127.397 119.989 127.109 119.824C126.827 119.653 126.611 119.443 126.461 119.192V122.08H125.733V115.616H126.461V116.424ZM129.437 117.792C129.437 117.461 129.371 117.173 129.237 116.928C129.104 116.683 128.923 116.496 128.693 116.368C128.469 116.24 128.221 116.176 127.949 116.176C127.683 116.176 127.435 116.243 127.205 116.376C126.981 116.504 126.8 116.693 126.661 116.944C126.528 117.189 126.461 117.475 126.461 117.8C126.461 118.131 126.528 118.421 126.661 118.672C126.8 118.917 126.981 119.107 127.205 119.24C127.435 119.368 127.683 119.432 127.949 119.432C128.221 119.432 128.469 119.368 128.693 119.24C128.923 119.107 129.104 118.917 129.237 118.672C129.371 118.421 129.437 118.128 129.437 117.792ZM132.027 116.216V118.8C132.027 119.013 132.073 119.165 132.163 119.256C132.254 119.341 132.411 119.384 132.635 119.384H133.171V120H132.515C132.11 120 131.806 119.907 131.603 119.72C131.401 119.533 131.299 119.227 131.299 118.8V116.216H130.731V115.616H131.299V114.512H132.027V115.616H133.171V116.216H132.027ZM135.966 120.072C135.555 120.072 135.182 119.979 134.846 119.792C134.515 119.605 134.254 119.341 134.062 119C133.875 118.653 133.782 118.253 133.782 117.8C133.782 117.352 133.878 116.957 134.07 116.616C134.267 116.269 134.534 116.005 134.87 115.824C135.206 115.637 135.582 115.544 135.998 115.544C136.414 115.544 136.79 115.637 137.126 115.824C137.462 116.005 137.726 116.267 137.918 116.608C138.115 116.949 138.214 117.347 138.214 117.8C138.214 118.253 138.112 118.653 137.91 119C137.712 119.341 137.443 119.605 137.102 119.792C136.76 119.979 136.382 120.072 135.966 120.072ZM135.966 119.432C136.227 119.432 136.472 119.371 136.702 119.248C136.931 119.125 137.115 118.941 137.254 118.696C137.398 118.451 137.47 118.152 137.47 117.8C137.47 117.448 137.4 117.149 137.262 116.904C137.123 116.659 136.942 116.477 136.718 116.36C136.494 116.237 136.251 116.176 135.99 116.176C135.723 116.176 135.478 116.237 135.254 116.36C135.035 116.477 134.859 116.659 134.726 116.904C134.592 117.149 134.526 117.448 134.526 117.8C134.526 118.157 134.59 118.459 134.718 118.704C134.851 118.949 135.027 119.133 135.246 119.256C135.464 119.373 135.704 119.432 135.966 119.432ZM144.872 114.848H142.064V116.672C142.186 116.501 142.368 116.363 142.608 116.256C142.848 116.144 143.106 116.088 143.384 116.088C143.826 116.088 144.186 116.181 144.464 116.368C144.741 116.549 144.938 116.787 145.056 117.08C145.178 117.368 145.24 117.675 145.24 118C145.24 118.384 145.168 118.728 145.024 119.032C144.88 119.336 144.658 119.576 144.36 119.752C144.066 119.928 143.701 120.016 143.264 120.016C142.704 120.016 142.25 119.872 141.904 119.584C141.557 119.296 141.346 118.912 141.272 118.432H141.984C142.053 118.736 142.2 118.973 142.424 119.144C142.648 119.315 142.93 119.4 143.272 119.4C143.693 119.4 144.01 119.275 144.224 119.024C144.437 118.768 144.544 118.432 144.544 118.016C144.544 117.6 144.437 117.28 144.224 117.056C144.01 116.827 143.696 116.712 143.28 116.712C142.997 116.712 142.749 116.781 142.536 116.92C142.328 117.053 142.176 117.237 142.08 117.472H141.392V114.208H144.872V114.848ZM146.207 117.048C146.207 116.131 146.356 115.416 146.655 114.904C146.954 114.387 147.476 114.128 148.223 114.128C148.964 114.128 149.484 114.387 149.783 114.904C150.082 115.416 150.231 116.131 150.231 117.048C150.231 117.981 150.082 118.707 149.783 119.224C149.484 119.741 148.964 120 148.223 120C147.476 120 146.954 119.741 146.655 119.224C146.356 118.707 146.207 117.981 146.207 117.048ZM149.511 117.048C149.511 116.584 149.479 116.192 149.415 115.872C149.356 115.547 149.231 115.285 149.039 115.088C148.852 114.891 148.58 114.792 148.223 114.792C147.86 114.792 147.583 114.891 147.391 115.088C147.204 115.285 147.079 115.547 147.015 115.872C146.956 116.192 146.927 116.584 146.927 117.048C146.927 117.528 146.956 117.931 147.015 118.256C147.079 118.581 147.204 118.843 147.391 119.04C147.583 119.237 147.86 119.336 148.223 119.336C148.58 119.336 148.852 119.237 149.039 119.04C149.231 118.843 149.356 118.581 149.415 118.256C149.479 117.931 149.511 117.528 149.511 117.048ZM151.23 117.048C151.23 116.131 151.38 115.416 151.678 114.904C151.977 114.387 152.5 114.128 153.246 114.128C153.988 114.128 154.508 114.387 154.806 114.904C155.105 115.416 155.254 116.131 155.254 117.048C155.254 117.981 155.105 118.707 154.806 119.224C154.508 119.741 153.988 120 153.246 120C152.5 120 151.977 119.741 151.678 119.224C151.38 118.707 151.23 117.981 151.23 117.048ZM154.534 117.048C154.534 116.584 154.502 116.192 154.438 115.872C154.38 115.547 154.254 115.285 154.062 115.088C153.876 114.891 153.604 114.792 153.246 114.792C152.884 114.792 152.606 114.891 152.414 115.088C152.228 115.285 152.102 115.547 152.038 115.872C151.98 116.192 151.95 116.584 151.95 117.048C151.95 117.528 151.98 117.931 152.038 118.256C152.102 118.581 152.228 118.843 152.414 119.04C152.606 119.237 152.884 119.336 153.246 119.336C153.604 119.336 153.876 119.237 154.062 119.04C154.254 118.843 154.38 118.581 154.438 118.256C154.502 117.931 154.534 117.528 154.534 117.048ZM156.254 117.048C156.254 116.131 156.403 115.416 156.702 114.904C157 114.387 157.523 114.128 158.27 114.128C159.011 114.128 159.531 114.387 159.83 114.904C160.128 115.416 160.278 116.131 160.278 117.048C160.278 117.981 160.128 118.707 159.83 119.224C159.531 119.741 159.011 120 158.27 120C157.523 120 157 119.741 156.702 119.224C156.403 118.707 156.254 117.981 156.254 117.048ZM159.558 117.048C159.558 116.584 159.526 116.192 159.462 115.872C159.403 115.547 159.278 115.285 159.086 115.088C158.899 114.891 158.627 114.792 158.27 114.792C157.907 114.792 157.63 114.891 157.438 115.088C157.251 115.285 157.126 115.547 157.062 115.872C157.003 116.192 156.974 116.584 156.974 117.048C156.974 117.528 157.003 117.931 157.062 118.256C157.126 118.581 157.251 118.843 157.438 119.04C157.63 119.237 157.907 119.336 158.27 119.336C158.627 119.336 158.899 119.237 159.086 119.04C159.278 118.843 159.403 118.581 159.462 118.256C159.526 117.931 159.558 117.528 159.558 117.048ZM163.906 114.904C163.767 114.904 163.65 114.856 163.554 114.76C163.458 114.664 163.41 114.547 163.41 114.408C163.41 114.269 163.458 114.152 163.554 114.056C163.65 113.96 163.767 113.912 163.906 113.912C164.039 113.912 164.151 113.96 164.242 114.056C164.338 114.152 164.386 114.269 164.386 114.408C164.386 114.547 164.338 114.664 164.242 114.76C164.151 114.856 164.039 114.904 163.906 114.904ZM164.258 115.616V120H163.53V115.616H164.258ZM167.635 115.536C168.168 115.536 168.6 115.699 168.931 116.024C169.261 116.344 169.427 116.808 169.427 117.416V120H168.707V117.52C168.707 117.083 168.597 116.749 168.379 116.52C168.16 116.285 167.861 116.168 167.483 116.168C167.099 116.168 166.792 116.288 166.563 116.528C166.339 116.768 166.227 117.117 166.227 117.576V120H165.499V115.616H166.227V116.24C166.371 116.016 166.565 115.843 166.811 115.72C167.061 115.597 167.336 115.536 167.635 115.536ZM173.477 114.08V120H172.749V114.08H173.477ZM174.446 117.792C174.446 117.344 174.536 116.952 174.718 116.616C174.899 116.275 175.147 116.011 175.462 115.824C175.782 115.637 176.136 115.544 176.526 115.544C176.91 115.544 177.243 115.627 177.526 115.792C177.808 115.957 178.019 116.165 178.158 116.416V115.616H178.894V120H178.158V119.184C178.014 119.44 177.798 119.653 177.51 119.824C177.227 119.989 176.896 120.072 176.518 120.072C176.128 120.072 175.776 119.976 175.462 119.784C175.147 119.592 174.899 119.323 174.718 118.976C174.536 118.629 174.446 118.235 174.446 117.792ZM178.158 117.8C178.158 117.469 178.091 117.181 177.958 116.936C177.824 116.691 177.643 116.504 177.414 116.376C177.19 116.243 176.942 116.176 176.67 116.176C176.398 116.176 176.15 116.24 175.926 116.368C175.702 116.496 175.523 116.683 175.39 116.928C175.256 117.173 175.19 117.461 175.19 117.792C175.19 118.128 175.256 118.421 175.39 118.672C175.523 118.917 175.702 119.107 175.926 119.24C176.15 119.368 176.398 119.432 176.67 119.432C176.942 119.432 177.19 119.368 177.414 119.24C177.643 119.107 177.824 118.917 177.958 118.672C178.091 118.421 178.158 118.131 178.158 117.8ZM181.676 120.072C181.34 120.072 181.038 120.016 180.772 119.904C180.505 119.787 180.294 119.627 180.14 119.424C179.985 119.216 179.9 118.979 179.884 118.712H180.636C180.657 118.931 180.758 119.109 180.94 119.248C181.126 119.387 181.369 119.456 181.668 119.456C181.945 119.456 182.164 119.395 182.324 119.272C182.484 119.149 182.564 118.995 182.564 118.808C182.564 118.616 182.478 118.475 182.308 118.384C182.137 118.288 181.873 118.195 181.516 118.104C181.19 118.019 180.924 117.933 180.716 117.848C180.513 117.757 180.337 117.627 180.188 117.456C180.044 117.28 179.972 117.051 179.972 116.768C179.972 116.544 180.038 116.339 180.172 116.152C180.305 115.965 180.494 115.819 180.74 115.712C180.985 115.6 181.265 115.544 181.58 115.544C182.065 115.544 182.457 115.667 182.756 115.912C183.054 116.157 183.214 116.493 183.236 116.92H182.508C182.492 116.691 182.398 116.507 182.228 116.368C182.062 116.229 181.838 116.16 181.556 116.16C181.294 116.16 181.086 116.216 180.932 116.328C180.777 116.44 180.7 116.587 180.7 116.768C180.7 116.912 180.745 117.032 180.836 117.128C180.932 117.219 181.049 117.293 181.188 117.352C181.332 117.405 181.529 117.467 181.78 117.536C182.094 117.621 182.35 117.707 182.548 117.792C182.745 117.872 182.913 117.995 183.052 118.16C183.196 118.325 183.27 118.541 183.276 118.808C183.276 119.048 183.209 119.264 183.076 119.456C182.942 119.648 182.753 119.8 182.508 119.912C182.268 120.019 181.99 120.072 181.676 120.072ZM185.192 116.216V118.8C185.192 119.013 185.237 119.165 185.328 119.256C185.418 119.341 185.576 119.384 185.799 119.384H186.336V120H185.68C185.274 120 184.97 119.907 184.768 119.72C184.565 119.533 184.464 119.227 184.464 118.8V116.216H183.896V115.616H184.464V114.512H185.192V115.616H186.336V116.216H185.192ZM192.79 114.784L190.566 120H189.83L192.086 114.856H188.998V114.232H192.79V114.784ZM120.344 129.792C120.344 129.344 120.435 128.952 120.616 128.616C120.797 128.275 121.045 128.011 121.36 127.824C121.68 127.637 122.037 127.544 122.432 127.544C122.773 127.544 123.091 127.624 123.384 127.784C123.677 127.939 123.901 128.144 124.056 128.4V126.08H124.792V132H124.056V131.176C123.912 131.437 123.699 131.653 123.416 131.824C123.133 131.989 122.803 132.072 122.424 132.072C122.035 132.072 121.68 131.976 121.36 131.784C121.045 131.592 120.797 131.323 120.616 130.976C120.435 130.629 120.344 130.235 120.344 129.792ZM124.056 129.8C124.056 129.469 123.989 129.181 123.856 128.936C123.723 128.691 123.541 128.504 123.312 128.376C123.088 128.243 122.84 128.176 122.568 128.176C122.296 128.176 122.048 128.24 121.824 128.368C121.6 128.496 121.421 128.683 121.288 128.928C121.155 129.173 121.088 129.461 121.088 129.792C121.088 130.128 121.155 130.421 121.288 130.672C121.421 130.917 121.6 131.107 121.824 131.24C122.048 131.368 122.296 131.432 122.568 131.432C122.84 131.432 123.088 131.368 123.312 131.24C123.541 131.107 123.723 130.917 123.856 130.672C123.989 130.421 124.056 130.131 124.056 129.8ZM125.75 129.792C125.75 129.344 125.841 128.952 126.022 128.616C126.204 128.275 126.452 128.011 126.766 127.824C127.086 127.637 127.441 127.544 127.83 127.544C128.214 127.544 128.548 127.627 128.83 127.792C129.113 127.957 129.324 128.165 129.462 128.416V127.616H130.198V132H129.462V131.184C129.318 131.44 129.102 131.653 128.814 131.824C128.532 131.989 128.201 132.072 127.822 132.072C127.433 132.072 127.081 131.976 126.766 131.784C126.452 131.592 126.204 131.323 126.022 130.976C125.841 130.629 125.75 130.235 125.75 129.792ZM129.462 129.8C129.462 129.469 129.396 129.181 129.262 128.936C129.129 128.691 128.948 128.504 128.718 128.376C128.494 128.243 128.246 128.176 127.974 128.176C127.702 128.176 127.454 128.24 127.23 128.368C127.006 128.496 126.828 128.683 126.694 128.928C126.561 129.173 126.494 129.461 126.494 129.792C126.494 130.128 126.561 130.421 126.694 130.672C126.828 130.917 127.006 131.107 127.23 131.24C127.454 131.368 127.702 131.432 127.974 131.432C128.246 131.432 128.494 131.368 128.718 131.24C128.948 131.107 129.129 130.917 129.262 130.672C129.396 130.421 129.462 130.131 129.462 129.8ZM135.205 127.616L132.565 134.064H131.812L132.677 131.952L130.909 127.616H131.717L133.093 131.168L134.453 127.616H135.205ZM137.488 132.072C137.152 132.072 136.851 132.016 136.584 131.904C136.318 131.787 136.107 131.627 135.952 131.424C135.798 131.216 135.712 130.979 135.696 130.712H136.448C136.47 130.931 136.571 131.109 136.752 131.248C136.939 131.387 137.182 131.456 137.48 131.456C137.758 131.456 137.976 131.395 138.136 131.272C138.296 131.149 138.376 130.995 138.376 130.808C138.376 130.616 138.291 130.475 138.12 130.384C137.95 130.288 137.686 130.195 137.328 130.104C137.003 130.019 136.736 129.933 136.528 129.848C136.326 129.757 136.15 129.627 136 129.456C135.856 129.28 135.784 129.051 135.784 128.768C135.784 128.544 135.851 128.339 135.984 128.152C136.118 127.965 136.307 127.819 136.552 127.712C136.798 127.6 137.078 127.544 137.392 127.544C137.878 127.544 138.27 127.667 138.568 127.912C138.867 128.157 139.027 128.493 139.048 128.92H138.32C138.304 128.691 138.211 128.507 138.04 128.368C137.875 128.229 137.651 128.16 137.368 128.16C137.107 128.16 136.899 128.216 136.744 128.328C136.59 128.44 136.512 128.587 136.512 128.768C136.512 128.912 136.558 129.032 136.648 129.128C136.744 129.219 136.862 129.293 137 129.352C137.144 129.405 137.342 129.467 137.592 129.536C137.907 129.621 138.163 129.707 138.36 129.792C138.558 129.872 138.726 129.995 138.864 130.16C139.008 130.325 139.083 130.541 139.088 130.808C139.088 131.048 139.022 131.264 138.888 131.456C138.755 131.648 138.566 131.8 138.32 131.912C138.08 132.019 137.803 132.072 137.488 132.072ZM140.348 132.048C140.209 132.048 140.092 132 139.996 131.904C139.9 131.808 139.852 131.691 139.852 131.552C139.852 131.413 139.9 131.296 139.996 131.2C140.092 131.104 140.209 131.056 140.348 131.056C140.481 131.056 140.593 131.104 140.684 131.2C140.78 131.296 140.828 131.413 140.828 131.552C140.828 131.691 140.78 131.808 140.684 131.904C140.593 132 140.481 132.048 140.348 132.048Z" fill="#898989"/>
</g>
</g>
<defs>
<filter id="filter0_d_123_131" x="0" y="0" width="217" height="155" filterUnits="userSpaceOnUse" color-interpolation-filters="sRGB">
<feFlood flood-opacity="0" result="BackgroundImageFix"/>
<feColorMatrix in="SourceAlpha" type="matrix" values="0 0 0 0 0 0 0 0 0 0 0 0 0 0 0 0 0 0 127 0" result="hardAlpha"/>
<feOffset dy="1"/>
<feGaussianBlur stdDeviation="2.5"/>
<feComposite in2="hardAlpha" operator="out"/>
<feColorMatrix type="matrix" values="0 0 0 0 0.189 0 0 0 0 0.4095 0 0 0 0 0.63 0 0 0 0.1 0"/>
<feBlend mode="normal" in2="BackgroundImageFix" result="effect1_dropShadow_123_131"/>
<feBlend mode="normal" in="SourceGraphic" in2="effect1_dropShadow_123_131" result="shape"/>
</filter>
<filter id="filter1_d_123_131" x="6" y="2" width="43" height="43" filterUnits="userSpaceOnUse" color-interpolation-filters="sRGB">
<feFlood flood-opacity="0" result="BackgroundImageFix"/>
<feColorMatrix in="SourceAlpha" type="matrix" values="0 0 0 0 0 0 0 0 0 0 0 0 0 0 0 0 0 0 127 0" result="hardAlpha"/>
<feOffset dy="2"/>
<feGaussianBlur stdDeviation="7"/>
<feComposite in2="hardAlpha" operator="out"/>
<feColorMatrix type="matrix" values="0 0 0 0 0 0 0 0 0 0 0 0 0 0 0 0 0 0 0.12 0"/>
<feBlend mode="normal" in2="BackgroundImageFix" result="effect1_dropShadow_123_131"/>
<feBlend mode="normal" in="SourceGraphic" in2="effect1_dropShadow_123_131" result="shape"/>
</filter>
<clipPath id="clip0_123_131">
<rect x="5" y="4" width="207" height="145" rx="12" fill="white"/>
</clipPath>
</defs>
</svg>
