<svg width="48" height="86" viewBox="0 0 48 86" fill="none" xmlns="http://www.w3.org/2000/svg">
<path d="M11.9 60.952V55.912L26.684 42.736C27.836 41.712 28.636 40.744 29.084 39.832C29.532 38.92 29.756 38.04 29.756 37.192C29.756 36.04 29.508 35.016 29.012 34.12C28.516 33.208 27.828 32.488 26.948 31.96C26.084 31.432 25.084 31.168 23.948 31.168C22.748 31.168 21.684 31.448 20.756 32.008C19.844 32.552 19.132 33.28 18.62 34.192C18.108 35.104 17.868 36.088 17.9 37.144H11.948C11.948 34.84 12.46 32.832 13.484 31.12C14.524 29.408 15.948 28.08 17.756 27.136C19.58 26.192 21.684 25.72 24.068 25.72C26.276 25.72 28.26 26.216 30.02 27.208C31.78 28.184 33.164 29.544 34.172 31.288C35.18 33.016 35.684 35.008 35.684 37.264C35.684 38.912 35.46 40.296 35.012 41.416C34.564 42.536 33.892 43.568 32.996 44.512C32.116 45.456 31.02 46.504 29.708 47.656L19.22 56.944L18.692 55.504H35.684V60.952H11.9Z" fill="url(#paint0_linear_243_606)"/>
<defs>
<linearGradient id="paint0_linear_243_606" x1="1.34543e-07" y1="17.5" x2="51" y2="76" gradientUnits="userSpaceOnUse">
<stop stop-color="white"/>
<stop offset="0.728109" stop-color="#364F69" stop-opacity="0"/>
</linearGradient>
</defs>
</svg>
