<svg width="64" height="64" viewBox="0 0 64 64" fill="none" xmlns="http://www.w3.org/2000/svg">
<path d="M12.32 21.1763C9.44935 21.1763 6.69598 22.3169 4.66623 24.3466C2.63648 26.3764 1.49585 29.1294 1.49585 32.0004C1.49585 34.871 2.63648 37.6239 4.66623 39.6538C6.69598 41.684 9.44947 42.8241 12.32 42.8241C15.1905 42.8241 17.9435 41.684 19.9737 39.6538C22.0035 37.624 23.1436 34.871 23.1436 32.0004C23.1436 29.1293 22.0035 26.3764 19.9737 24.3466C17.9435 22.3169 15.1905 21.1763 12.32 21.1763ZM17.7321 38.9963C16.1852 40.2013 14.2805 40.8561 12.32 40.8561C10.359 40.8561 8.45473 40.2014 6.90785 38.9963V33.9679C6.91029 33.1857 7.22181 32.4361 7.77504 31.8829C8.32826 31.3302 9.07779 31.0181 9.86004 31.0157H12.32C11.5368 31.0157 10.7863 30.7047 10.2327 30.1514C9.67895 29.5977 9.36791 28.8467 9.36791 28.0641C9.36791 27.2809 9.67895 26.5299 10.2327 25.9767C10.7864 25.423 11.5369 25.1119 12.32 25.1119C13.1028 25.1119 13.8538 25.423 14.4074 25.9767C14.9611 26.5299 15.2722 27.2809 15.2722 28.0641C15.2722 28.8468 14.9611 29.5978 14.4074 30.1514C13.8537 30.7047 13.1027 31.0157 12.32 31.0157H14.78C15.5623 31.0181 16.3118 31.3302 16.865 31.8829C17.4178 32.4361 17.7298 33.1856 17.7322 33.9679L17.7321 38.9963Z" fill="#3068A1"/>
<path d="M61.0276 58.5675C61.1579 58.5675 61.2834 58.5158 61.3757 58.4235C61.468 58.3312 61.5198 58.2062 61.5198 58.0753V47.2511V47.2516C61.5198 47.1212 61.468 46.9957 61.3757 46.9034C61.2834 46.8112 61.1579 46.7594 61.0276 46.7594H46.2676H46.2681C45.9961 46.7594 45.7759 46.9796 45.7759 47.2516V58.0758V58.0753C45.7759 58.2062 45.8276 58.3312 45.9199 58.4235C46.0122 58.5158 46.1372 58.5675 46.2681 58.5675H52.6641V60.5353L50.6958 60.5358V62.5035H56.5996L56.6001 60.5358H54.6318V58.5675L61.0276 58.5675Z" fill="#3068A1"/>
<path d="M32.9838 11.3363V31.0163H26.0957V32.984H32.9838V52.6653C32.9838 52.926 33.0873 53.1765 33.2719 53.3611C33.4565 53.5457 33.707 53.6492 33.9677 53.6492H42.8237V51.6809H34.9516V32.9847H42.8237V31.0164H34.9516V12.3202H42.8237V10.3519H33.9677C33.4242 10.3519 32.9838 10.7928 32.9838 11.3363Z" fill="#3068A1"/>
<path d="M59.5513 1.495H47.7432C47.1997 1.495 46.7593 1.93542 46.7593 2.47888V20.1914C46.7593 20.4521 46.8633 20.7026 47.0474 20.8872C47.2319 21.0718 47.4824 21.1753 47.7432 21.1753H59.5513C59.8125 21.1753 60.0625 21.0718 60.2471 20.8872C60.4317 20.7026 60.5357 20.4521 60.5357 20.1914V2.47888C60.5357 2.21814 60.4317 1.96766 60.2471 1.78308C60.0625 1.59899 59.8125 1.495 59.5513 1.495ZM59.0591 18.2225H48.2348L48.2353 4.44625H59.0596L59.0591 18.2225Z" fill="#3068A1"/>
<path d="M61.0276 26.5875H46.2676H46.2681C45.9961 26.5875 45.7759 26.8077 45.7759 27.0792V38.3956L45.0073 40.7003V40.6999C44.9575 40.8502 44.9824 41.0153 45.0752 41.1437C45.168 41.2716 45.3164 41.3478 45.4746 41.3473H61.8209C61.9791 41.3478 62.128 41.2716 62.2208 41.1437C62.3131 41.0153 62.3385 40.8502 62.2886 40.6999L61.5201 38.3956V27.0792C61.5201 26.9489 61.4683 26.8239 61.3761 26.7316C61.2838 26.6393 61.1583 26.5875 61.0279 26.5875L61.0276 26.5875ZM60.0437 36.9195H47.2512V28.0635H60.0437V36.9195Z" fill="#3068A1"/>
</svg>
