<svg width="68" height="68" viewBox="0 0 68 68" fill="none" xmlns="http://www.w3.org/2000/svg">
<rect width="68" height="68" rx="20" fill="#3068A1"/>
<g clip-path="url(#clip0_123_276)">
<path fill-rule="evenodd" clip-rule="evenodd" d="M57.099 25.8889H47.3872C42.8677 25.8968 39.2064 29.4666 39.1982 33.8732C39.1921 38.2898 42.8575 41.8755 47.3872 41.8815H57.1072V42.5831C57.1072 50.2872 52.4368 54.8429 44.5332 54.8429H23.815C15.9094 54.8429 11.239 50.2872 11.239 42.5831V25.8034C11.239 18.0993 15.9094 13.5615 23.815 13.5615H44.525C52.4286 13.5615 57.099 18.0993 57.099 25.8034V25.8889ZM22.1088 25.8709H35.0436H35.0518H35.0681C36.0364 25.8669 36.8192 25.0977 36.8151 24.1516C36.8111 23.2075 36.0201 22.4442 35.0518 22.4482H22.1088C21.1466 22.4521 20.3658 23.2134 20.3617 24.1536C20.3576 25.0977 21.1405 25.8669 22.1088 25.8709Z" fill="white"/>
<path opacity="0.4" d="M43.4325 34.8825C43.9121 37.064 45.8247 38.5988 48.0082 38.5589H55.4616C56.3702 38.5589 57.1071 37.8064 57.1071 36.8764V31.0705C57.1052 30.1424 56.3702 29.388 55.4616 29.386H47.8328C45.3489 29.394 43.3428 31.4557 43.3467 33.9964C43.3467 34.2938 43.3759 34.5911 43.4325 34.8825Z" fill="white"/>
<path d="M47.9333 36.2663C49.1999 36.2663 50.2267 35.2395 50.2267 33.9729C50.2267 32.7062 49.1999 31.6794 47.9333 31.6794C46.6667 31.6794 45.6399 32.7062 45.6399 33.9729C45.6399 35.2395 46.6667 36.2663 47.9333 36.2663Z" fill="white"/>
</g>
<defs>
<clipPath id="clip0_123_276">
<rect width="47" height="42" fill="white" transform="translate(11 13)"/>
</clipPath>
</defs>
</svg>
